<svg version="1.1" viewBox="0.0 0.0 202.3464566929134 395.251968503937" fill="none" stroke="none" stroke-linecap="square" stroke-miterlimit="10" xmlns:xlink="http://www.w3.org/1999/xlink" xmlns="http://www.w3.org/2000/svg"><clipPath id="p.0"><path d="m0 0l202.34645 0l0 395.25198l-202.34645 0l0 -395.25198z" clip-rule="nonzero"/></clipPath><g clip-path="url(#p.0)"><path fill="#000000" fill-opacity="0.0" d="m0 0l202.34645 0l0 395.25198l-202.34645 0z" fill-rule="evenodd"/><path fill="#000000" fill-opacity="0.0" d="m25.897638 22.66929l150.55118 0l0 50.456696l-150.55118 0z" fill-rule="evenodd"/><path stroke="#000000" stroke-width="1.0" stroke-linejoin="round" stroke-linecap="butt" d="m25.897638 22.66929l150.55118 0l0 50.456696l-150.55118 0z" fill-rule="evenodd"/><path fill="#0000ff" d="m66.0445 33.197636l1.859375 0.578125q-0.421875 1.5625 -1.421875 2.328125q-1.0 0.75 -2.53125 0.75q-1.90625 0 -3.140625 -1.296875q-1.21875 -1.296875 -1.21875 -3.546875q0 -2.374998 1.234375 -3.687498q1.234375 -1.328125 3.234375 -1.328125q1.75 0 2.84375 1.03125q0.65625 0.609375 0.984375 1.765625l-1.90625 0.453125q-0.171875 -0.75 -0.71875 -1.171875q-0.53125 -0.4375 -1.296875 -0.4375q-1.0625 0 -1.734375 0.765625q-0.65625 0.765625 -0.65625 2.46875q0 1.8124981 0.65625 2.578123q0.65625 0.765625 1.6875 0.765625q0.78125 0 1.328125 -0.484375q0.546875 -0.484375 0.796875 -1.53125zm3.5157776 3.5l0 -9.546873l4.0625 0q1.53125 0 2.21875 0.265625q0.703125 0.25 1.109375 0.90625q0.421875 0.65625 0.421875 1.515625q0 1.0625 -0.640625 1.765625q-0.625 0.7031231 -1.875 0.8906231q0.625 0.359375 1.03125 0.796875q0.40625 0.4375 1.09375 1.546875l1.15625 1.859375l-2.296875 0l-1.390625 -2.078125q-0.75 -1.109375 -1.03125 -1.390625q-0.265625 -0.296875 -0.578125 -0.40625q-0.296875 -0.109375 -0.953125 -0.109375l-0.390625 0l0 3.984375l-1.9375 0zm1.9375 -5.499998l1.421875 0q1.390625 0 1.734375 -0.109375q0.34375 -0.125 0.53125 -0.40625q0.203125 -0.296875 0.203125 -0.71875q0 -0.484375 -0.265625 -0.78125q-0.25 -0.296875 -0.71875 -0.375q-0.234375 -0.03125 -1.40625 -0.03125l-1.5 0l0 2.421875zm7.6251526 5.499998l0 -9.546873l1.9375 0l0 9.546873l-1.9375 0zm12.374863 0l-2.09375 0l-0.84375 -2.171875l-3.8125 0l-0.78125 2.171875l-2.046875 0l3.71875 -9.546873l2.03125 0l3.828125 9.546873zm-3.546875 -3.78125l-1.3125 -3.531248l-1.296875 3.531248l2.609375 0zm10.672028 0.28125l1.859375 0.578125q-0.421875 1.5625 -1.421875 2.328125q-1.0 0.75 -2.53125 0.75q-1.90625 0 -3.140625 -1.296875q-1.21875 -1.296875 -1.21875 -3.546875q0 -2.374998 1.234375 -3.687498q1.234375 -1.328125 3.234375 -1.328125q1.75 0 2.84375 1.03125q0.65625 0.609375 0.984375 1.765625l-1.90625 0.453125q-0.171875 -0.75 -0.71875 -1.171875q-0.53125 -0.4375 -1.296875 -0.4375q-1.0625 0 -1.734375 0.765625q-0.65625 0.765625 -0.65625 2.46875q0 1.8124981 0.65625 2.578123q0.65625 0.765625 1.6875 0.765625q0.78125 0 1.328125 -0.484375q0.546875 -0.484375 0.796875 -1.53125zm-4.046875 6.125004l0 -0.7656288q0.671875 0.0625 1.234375 0.0625q0.578125 0 0.859375 -0.203125q0.203125 -0.15625 0.203125 -0.40625q0 -0.21875 -0.203125 -0.390625q-0.203125 -0.15625 -0.625 -0.15625q-0.40625 0 -0.84375 0.125l0.171875 -0.640625q0.5 -0.171875 1.09375 -0.171875q0.8125 0 1.234375 0.359375q0.421875 0.359375 0.421875 0.875q0 0.5625 -0.46875 0.9218788q-0.640625 0.5 -1.8125 0.5q-0.84375 0 -1.265625 -0.109375zm16.172028 -2.6250038l-2.09375 0l-0.84375 -2.171875l-3.8125 0l-0.78125 2.171875l-2.046875 0l3.71875 -9.546873l2.03125 0l3.828125 9.546873zm-3.546875 -3.78125l-1.3125 -3.531248l-1.296875 3.531248l2.609375 0zm-2.8125 -6.281248l-0.828125 0q0 -0.140625 0 -0.234375q0 -0.6875 0.328125 -1.046875q0.328125 -0.375 0.84375 -0.375q0.234375 0 0.421875 0.0625q0.203125 0.046875 0.71875 0.28125q0.515625 0.21875 0.8125 0.21875q0.203125 0 0.34375 -0.125q0.140625 -0.140625 0.1875 -0.4375l0.84375 0q-0.015625 0.875 -0.34375 1.25q-0.3125 0.375 -0.8125 0.375q-0.21875 0 -0.4375 -0.03125q-0.15625 -0.046875 -0.75 -0.265625q-0.59375 -0.234375 -0.875 -0.234375q-0.203125 0 -0.328125 0.125q-0.109375 0.125 -0.125 0.4375zm6.9845276 5.34375q0 -1.453125 0.4375 -2.4375q0.328125 -0.734375 0.890625 -1.3125q0.5625 -0.578125 1.234375 -0.859375q0.890625 -0.375 2.046875 -0.375q2.109375 0 3.375 1.3125q1.265625 1.296875 1.265625 3.640625q0 2.296873 -1.25 3.609373q-1.25 1.296875 -3.359375 1.296875q-2.125 0 -3.390625 -1.296875q-1.25 -1.296875 -1.25 -3.578123zm1.984375 -0.0625q0 1.6249981 0.75 2.468748q0.75 0.828125 1.90625 0.828125q1.140625 0 1.875 -0.828125q0.75 -0.828125 0.75 -2.484373q0 -1.640625 -0.71875 -2.453125q-0.71875 -0.8125 -1.90625 -0.8125q-1.203125 0 -1.9375 0.828125q-0.71875 0.8125 -0.71875 2.453125zm12.476288 -4.765625l3.5156326 0q1.1875 0 1.8125 0.1875q0.84375 0.25 1.4375 0.890625q0.609375 0.625 0.921875 1.546875q0.3125 0.90625 0.3125 2.249998q0 1.171875 -0.296875 2.015625q-0.359375 1.046875 -1.03125 1.6875q-0.5 0.5 -1.34375 0.765625q-0.640625 0.203125 -1.703125 0.203125l-3.6250076 0l0 -9.546873zm1.921875 1.625l0 6.312498l1.4375076 0q0.8125 0 1.171875 -0.09375q0.46875 -0.109375 0.765625 -0.390625q0.3125 -0.28125 0.5 -0.921875q0.203125 -0.640625 0.203125 -1.7499981q0 -1.109375 -0.203125 -1.6875q-0.1875 -0.59375 -0.546875 -0.921875q-0.34375 -0.34375 -0.875 -0.453125q-0.40625 -0.09375 -1.59375 -0.09375l-0.8593826 0zm7.703285 7.921873l0 -9.546873l7.078125 0l0 1.625l-5.15625 0l0 2.109375l4.796875 0l0 1.6093731l-4.796875 0l0 2.59375l5.328125 0l0 1.609375l-7.25 0z" fill-rule="nonzero"/><path fill="#0000ff" d="m39.929924 52.69764l0 -9.546875l3.09375 0q1.75 0 2.296875 0.15625q0.8125 0.203125 1.359375 0.921875q0.5625 0.71875 0.5625 1.859375q0 0.875 -0.328125 1.484375q-0.3125 0.59375 -0.8125 0.9375q-0.484375 0.34375 -0.984375 0.453125q-0.703125 0.140625 -2.0 0.140625l-1.265625 0l0 3.59375l-1.921875 0zm1.921875 -7.921875l0 2.703125l1.0625 0q1.140625 0 1.515625 -0.140625q0.390625 -0.15625 0.609375 -0.46875q0.21875 -0.328125 0.21875 -0.75q0 -0.515625 -0.3125 -0.859375q-0.296875 -0.34375 -0.765625 -0.421875q-0.34375 -0.0625 -1.390625 -0.0625l-0.9375 0zm6.9678802 7.921875l0 -9.546875l4.0625 0q1.53125 0 2.21875 0.265625q0.703125 0.25 1.109375 0.90625q0.421875 0.65625 0.421875 1.515625q0 1.0625 -0.640625 1.765625q-0.625 0.703125 -1.875 0.890625q0.625 0.359375 1.03125 0.796875q0.40625 0.4375 1.09375 1.546875l1.15625 1.859375l-2.296875 0l-1.390625 -2.078125q-0.75 -1.109375 -1.03125 -1.390625q-0.265625 -0.296875 -0.578125 -0.40625q-0.296875 -0.109375 -0.953125 -0.109375l-0.390625 0l0 3.984375l-1.9375 0zm1.9375 -5.5l1.421875 0q1.390625 0 1.734375 -0.109375q0.34375 -0.125 0.53125 -0.40625q0.203125 -0.296875 0.203125 -0.71875q0 -0.484375 -0.265625 -0.78125q-0.25 -0.296875 -0.71875 -0.375q-0.234375 -0.03125 -1.40625 -0.03125l-1.5 0l0 2.421875zm7.2970276 0.78125q0 -1.453125 0.4375 -2.4375q0.328125 -0.734375 0.890625 -1.3125q0.5625 -0.578125 1.234375 -0.859375q0.890625 -0.375 2.046875 -0.375q2.109375 0 3.375 1.3125q1.265625 1.296875 1.265625 3.640625q0 2.296875 -1.25 3.609375q-1.25 1.296875 -3.359375 1.296875q-2.125 0 -3.390625 -1.296875q-1.25 -1.296875 -1.25 -3.578125zm1.984375 -0.0625q0 1.625 0.75 2.46875q0.75 0.828125 1.90625 0.828125q1.140625 0 1.875 -0.828125q0.75 -0.828125 0.75 -2.484375q0 -1.640625 -0.71875 -2.453125q-0.71875 -0.8125 -1.90625 -0.8125q-1.203125 0 -1.9375 0.828125q-0.71875 0.8125 -0.71875 2.453125zm14.882675 1.28125l1.859375 0.578125q-0.421875 1.5625 -1.421875 2.328125q-1.0 0.75 -2.53125 0.75q-1.90625 0 -3.140625 -1.296875q-1.21875 -1.296875 -1.21875 -3.546875q0 -2.375 1.234375 -3.6875q1.234375 -1.328125 3.234375 -1.328125q1.75 0 2.84375 1.03125q0.65625 0.609375 0.984375 1.765625l-1.90625 0.453125q-0.171875 -0.75 -0.71875 -1.171875q-0.53125 -0.4375 -1.296875 -0.4375q-1.0625 0 -1.734375 0.765625q-0.65625 0.765625 -0.65625 2.46875q0 1.8125 0.65625 2.578125q0.65625 0.765625 1.6875 0.765625q0.78125 0 1.328125 -0.484375q0.546875 -0.484375 0.796875 -1.53125zm3.5157776 3.5l0 -9.546875l7.078125 0l0 1.625l-5.15625 0l0 2.109375l4.796875 0l0 1.609375l-4.796875 0l0 2.59375l5.328125 0l0 1.609375l-7.25 0zm8.40538 -3.109375l1.875 -0.171875q0.171875 0.9375 0.6875 1.390625q0.515625 0.4375 1.390625 0.4375q0.9375 0 1.40625 -0.390625q0.46875 -0.40625 0.46875 -0.921875q0 -0.34375 -0.203125 -0.578125q-0.1875 -0.234375 -0.6875 -0.421875q-0.34375 -0.109375 -1.546875 -0.40625q-1.546875 -0.390625 -2.171875 -0.953125q-0.875 -0.78125 -0.875 -1.921875q0 -0.71875 0.40625 -1.359375q0.421875 -0.640625 1.1875 -0.96875q0.78125 -0.328125 1.890625 -0.328125q1.796875 0 2.703125 0.796875q0.90625 0.78125 0.953125 2.09375l-1.921875 0.078125q-0.125 -0.734375 -0.53125 -1.046875q-0.40625 -0.328125 -1.234375 -0.328125q-0.828125 0 -1.3125 0.34375q-0.296875 0.21875 -0.296875 0.59375q0 0.34375 0.28125 0.578125q0.359375 0.3125 1.765625 0.640625q1.40625 0.328125 2.078125 0.6875q0.6875 0.359375 1.0625 0.96875q0.375 0.609375 0.375 1.515625q0 0.828125 -0.453125 1.546875q-0.453125 0.703125 -1.296875 1.0625q-0.828125 0.34375 -2.0625 0.34375q-1.8125 0 -2.78125 -0.828125q-0.96875 -0.84375 -1.15625 -2.453125zm8.889755 0l1.875 -0.171875q0.171875 0.9375 0.6875 1.390625q0.515625 0.4375 1.390625 0.4375q0.9375 0 1.40625 -0.390625q0.46875 -0.40625 0.46875 -0.921875q0 -0.34375 -0.203125 -0.578125q-0.1875 -0.234375 -0.6875 -0.421875q-0.34375 -0.109375 -1.546875 -0.40625q-1.546875 -0.390625 -2.171875 -0.953125q-0.875 -0.78125 -0.875 -1.921875q0 -0.71875 0.40625 -1.359375q0.421875 -0.640625 1.1875 -0.96875q0.78125 -0.328125 1.890625 -0.328125q1.796875 0 2.703125 0.796875q0.90625 0.78125 0.953125 2.09375l-1.921875 0.078125q-0.125 -0.734375 -0.53125 -1.046875q-0.40625 -0.328125 -1.234375 -0.328125q-0.828125 0 -1.3125 0.34375q-0.296875 0.21875 -0.296875 0.59375q0 0.34375 0.28125 0.578125q0.359375 0.3125 1.765625 0.640625q1.40625 0.328125 2.078125 0.6875q0.6875 0.359375 1.0625 0.96875q0.375 0.609375 0.375 1.515625q0 0.828125 -0.453125 1.546875q-0.453125 0.703125 -1.296875 1.0625q-0.828125 0.34375 -2.0625 0.34375q-1.8125 0 -2.78125 -0.828125q-0.96875 -0.84375 -1.15625 -2.453125zm8.983505 -1.609375q0 -1.453125 0.4375 -2.4375q0.328125 -0.734375 0.890625 -1.3125q0.5625 -0.578125 1.234375 -0.859375q0.890625 -0.375 2.046875 -0.375q2.109375 0 3.375 1.3125q1.265625 1.296875 1.265625 3.640625q0 2.296875 -1.25 3.609375q-1.25 1.296875 -3.359375 1.296875q-2.125 0 -3.390625 -1.296875q-1.25 -1.296875 -1.25 -3.578125zm1.984375 -0.0625q0 1.625 0.75 2.46875q0.75 0.828125 1.90625 0.828125q1.140625 0 1.875 -0.828125q0.75 -0.828125 0.75 -2.484375q0 -1.640625 -0.71875 -2.453125q-0.71875 -0.8125 -1.90625 -0.8125q-1.203125 0 -1.9375 0.828125q-0.71875 0.8125 -0.71875 2.453125zm12.491913 4.78125l0 -9.546875l1.875 0l3.90625 6.375l0 -6.375l1.796875 0l0 9.546875l-1.9375 0l-3.84375 -6.21875l0 6.21875l-1.796875 0zm9.21891 -4.71875q0 -1.453125 0.4375 -2.4375q0.328125 -0.734375 0.890625 -1.3125q0.5625 -0.578125 1.234375 -0.859375q0.890625 -0.375 2.046875 -0.375q2.109375 0 3.375 1.3125q1.265625 1.296875 1.265625 3.640625q0 2.296875 -1.25 3.609375q-1.25 1.296875 -3.359375 1.296875q-2.125 0 -3.390625 -1.296875q-1.25 -1.296875 -1.25 -3.578125zm1.984375 -0.0625q0 1.625 0.75 2.46875q0.75 0.828125 1.90625 0.828125q1.140625 0 1.875 -0.828125q0.75 -0.828125 0.75 -2.484375q0 -1.640625 -0.71875 -2.453125q-0.71875 -0.8125 -1.90625 -0.8125q-1.203125 0 -1.9375 0.828125q-0.71875 0.8125 -0.71875 2.453125zm11.991913 1.671875l1.875 -0.171875q0.171875 0.9375 0.6875 1.390625q0.515625 0.4375 1.390625 0.4375q0.9375 0 1.40625 -0.390625q0.46875 -0.40625 0.46875 -0.921875q0 -0.34375 -0.203125 -0.578125q-0.1875 -0.234375 -0.6875 -0.421875q-0.34375 -0.109375 -1.546875 -0.40625q-1.546875 -0.390625 -2.171875 -0.953125q-0.875 -0.78125 -0.875 -1.921875q0 -0.71875 0.40625 -1.359375q0.421875 -0.640625 1.1875 -0.96875q0.78125 -0.328125 1.890625 -0.328125q1.796875 0 2.703125 0.796875q0.90625 0.78125 0.953125 2.09375l-1.921875 0.078125q-0.125 -0.734375 -0.53125 -1.046875q-0.40625 -0.328125 -1.234375 -0.328125q-0.828125 0 -1.3125 0.34375q-0.296875 0.21875 -0.296875 0.59375q0 0.34375 0.28125 0.578125q0.359375 0.3125 1.765625 0.640625q1.40625 0.328125 2.078125 0.6875q0.6875 0.359375 1.0625 0.96875q0.375 0.609375 0.375 1.515625q0 0.828125 -0.453125 1.546875q-0.453125 0.703125 -1.296875 1.0625q-0.828125 0.34375 -2.0625 0.34375q-1.8125 0 -2.78125 -0.828125q-0.96875 -0.84375 -1.15625 -2.453125zm9.37413 3.109375l0 -9.546875l7.078125 0l0 1.625l-5.15625 0l0 2.109375l4.796875 0l0 1.609375l-4.796875 0l0 2.59375l5.328125 0l0 1.609375l-7.25 0zm8.827255 0l0 -9.546875l1.9375 0l0 9.546875l-1.9375 0z" fill-rule="nonzero"/><path fill="#0000ff" d="m165.28635 68.69764l-1.828125 0l0 -6.890625q-1.0 0.9375 -2.375 1.390625l0 -1.671875q0.71875 -0.234375 1.5625 -0.875q0.84375 -0.65625 1.15625 -1.53125l1.484375 0l0 9.578125z" fill-rule="nonzero"/><path fill="#000000" fill-opacity="0.0" d="m25.897638 97.531494l150.55118 0l0 50.456696l-150.55118 0z" fill-rule="evenodd"/><path stroke="#000000" stroke-width="1.0" stroke-linejoin="round" stroke-linecap="butt" d="m25.897638 97.531494l150.55118 0l0 50.456696l-150.55118 0z" fill-rule="evenodd"/><path fill="#0000ff" d="m78.79806 114.841095q0 -1.453125 0.4375 -2.4375q0.328125 -0.734375 0.890625 -1.3125q0.5625 -0.578125 1.234375 -0.859375q0.890625 -0.375 2.046875 -0.375q2.109375 0 3.375 1.3125q1.265625 1.296875 1.265625 3.640625q0 2.296875 -1.25 3.609375q-1.25 1.296875 -3.359375 1.296875q-2.125 0 -3.390625 -1.296875q-1.25 -1.296875 -1.25 -3.578125zm1.984375 -0.0625q0 1.625 0.75 2.46875q0.75 0.828125 1.90625 0.828125q1.140625 0 1.875 -0.828125q0.75 -0.828125 0.75 -2.484375q0 -1.640625 -0.71875 -2.453125q-0.71875 -0.8125 -1.90625 -0.8125q-1.203125 0 -1.9375 0.828125q-0.71875 0.8125 -0.71875 2.453125zm8.788925 4.78125l0 -9.546875l6.53125 0l0 1.625l-4.609375 0l0 2.25l3.984375 0l0 1.625l-3.984375 0l0 4.046875l-1.921875 0zm8.063232 0l0 -9.546875l1.9375 0l0 9.546875l-1.9375 0zm-0.21875 -10.078125l0.890625 -1.953125l2.0625 0l-1.796875 1.953125l-1.15625 0zm10.093613 6.578125l1.859375 0.578125q-0.421875 1.5625 -1.421875 2.328125q-1.0 0.75 -2.53125 0.75q-1.90625 0 -3.140625 -1.296875q-1.21875 -1.296875 -1.21875 -3.546875q0 -2.375 1.234375 -3.6875q1.234375 -1.328125 3.234375 -1.328125q1.75 0 2.84375 1.03125q0.65625 0.609375 0.984375 1.765625l-1.90625 0.453125q-0.171875 -0.75 -0.71875 -1.171875q-0.53125 -0.4375 -1.296875 -0.4375q-1.0625 0 -1.734375 0.765625q-0.65625 0.765625 -0.65625 2.46875q0 1.8125 0.65625 2.578125q0.65625 0.765625 1.6875 0.765625q0.78125 0 1.328125 -0.484375q0.546875 -0.484375 0.796875 -1.53125zm3.4532776 3.5l0 -9.546875l1.9375 0l0 9.546875l-1.9375 0zm3.3748627 -4.71875q0 -1.453125 0.4375 -2.4375q0.328125 -0.734375 0.890625 -1.3125q0.5625 -0.578125 1.234375 -0.859375q0.890625 -0.375 2.046875 -0.375q2.109375 0 3.375 1.3125q1.265625 1.296875 1.265625 3.640625q0 2.296875 -1.25 3.609375q-1.25 1.296875 -3.359375 1.296875q-2.125 0 -3.390625 -1.296875q-1.25 -1.296875 -1.25 -3.578125zm1.984375 -0.0625q0 1.625 0.75 2.46875q0.75 0.828125 1.90625 0.828125q1.140625 0 1.875 -0.828125q0.75 -0.828125 0.75 -2.484375q0 -1.640625 -0.71875 -2.453125q-0.71875 -0.8125 -1.90625 -0.8125q-1.203125 0 -1.9375 0.828125q-0.71875 0.8125 -0.71875 2.453125z" fill-rule="nonzero"/><path fill="#0000ff" d="m166.77072 133.85672l0 1.703125l-6.40625 0q0.109375 -0.96875 0.625 -1.828125q0.53125 -0.859375 2.0625 -2.28125q1.234375 -1.15625 1.515625 -1.5625q0.375 -0.5625 0.375 -1.125q0 -0.609375 -0.328125 -0.9375q-0.328125 -0.328125 -0.90625 -0.328125q-0.578125 0 -0.921875 0.34375q-0.328125 0.34375 -0.375 1.140625l-1.828125 -0.171875q0.15625 -1.515625 1.015625 -2.171875q0.859375 -0.65625 2.15625 -0.65625q1.40625 0 2.203125 0.765625q0.8125 0.75 0.8125 1.890625q0 0.640625 -0.234375 1.234375q-0.21875 0.578125 -0.71875 1.203125q-0.328125 0.4375 -1.203125 1.234375q-0.859375 0.78125 -1.09375 1.046875q-0.234375 0.25 -0.375 0.5l3.625 0z" fill-rule="nonzero"/><path fill="#000000" fill-opacity="0.0" d="m25.897638 172.39633l150.55118 0l0 50.45668l-150.55118 0z" fill-rule="evenodd"/><path stroke="#000000" stroke-width="1.0" stroke-linejoin="round" stroke-linecap="butt" d="m25.897638 172.39633l150.55118 0l0 50.45668l-150.55118 0z" fill-rule="evenodd"/><path fill="#0000ff" d="m64.8683 184.87779l3.515625 0q1.1875 0 1.8125 0.1875q0.84375 0.25 1.4375 0.890625q0.609375 0.625 0.921875 1.546875q0.3125 0.90625 0.3125 2.25q0 1.171875 -0.296875 2.015625q-0.359375 1.046875 -1.03125 1.6875q-0.5 0.5 -1.34375 0.765625q-0.640625 0.203125 -1.703125 0.203125l-3.625 0l0 -9.546875zm1.921875 1.625l0 6.3125l1.4375 0q0.8125 0 1.171875 -0.09375q0.46875 -0.109375 0.765625 -0.390625q0.3125 -0.28125 0.5 -0.921875q0.203125 -0.640625 0.203125 -1.75q0 -1.109375 -0.203125 -1.6875q-0.1875 -0.59375 -0.546875 -0.921875q-0.34375 -0.34375 -0.875 -0.453125q-0.40625 -0.09375 -1.59375 -0.09375l-0.859375 0zm7.7032776 7.921875l0 -9.546875l7.078125 0l0 1.625l-5.15625 0l0 2.109375l4.796875 0l0 1.609375l-4.796875 0l0 2.59375l5.328125 0l0 1.609375l-7.25 0zm8.40538 -3.109375l1.875 -0.171875q0.171875 0.9375 0.6875 1.390625q0.515625 0.4375 1.390625 0.4375q0.9375 0 1.40625 -0.390625q0.46875 -0.40625 0.46875 -0.921875q0 -0.34375 -0.203125 -0.578125q-0.1875 -0.234375 -0.6875 -0.421875q-0.34375 -0.109375 -1.546875 -0.40625q-1.546875 -0.390625 -2.171875 -0.953125q-0.875 -0.78125 -0.875 -1.921875q0 -0.71875 0.40625 -1.359375q0.421875 -0.640625 1.1875 -0.96875q0.78125 -0.328125 1.890625 -0.328125q1.796875 0 2.703125 0.796875q0.90625 0.78125 0.953125 2.09375l-1.921875 0.078125q-0.125 -0.734375 -0.53125 -1.046875q-0.40625 -0.328125 -1.234375 -0.328125q-0.828125 0 -1.3125 0.34375q-0.296875 0.21875 -0.296875 0.59375q0 0.34375 0.28125 0.578125q0.359375 0.3125 1.765625 0.640625q1.40625 0.328125 2.078125 0.6875q0.6875 0.359375 1.0625 0.96875q0.375 0.609375 0.375 1.515625q0 0.828125 -0.453125 1.546875q-0.453125 0.703125 -1.296875 1.0625q-0.828125 0.34375 -2.0625 0.34375q-1.8125 0 -2.78125 -0.828125q-0.96875 -0.84375 -1.15625 -2.453125zm9.37413 3.109375l0 -9.546875l3.09375 0q1.75 0 2.296875 0.15625q0.8125 0.203125 1.359375 0.921875q0.5625 0.71875 0.5625 1.859375q0 0.875 -0.328125 1.484375q-0.3125 0.59375 -0.8125 0.9375q-0.484375 0.34375 -0.984375 0.453125q-0.703125 0.140625 -2.0 0.140625l-1.265625 0l0 3.59375l-1.921875 0zm1.921875 -7.921875l0 2.703125l1.0625 0q1.140625 0 1.515625 -0.140625q0.390625 -0.15625 0.609375 -0.46875q0.21875 -0.328125 0.21875 -0.75q0 -0.515625 -0.3125 -0.859375q-0.296875 -0.34375 -0.765625 -0.421875q-0.34375 -0.0625 -1.390625 -0.0625l-0.9375 0zm14.587677 7.921875l-2.09375 0l-0.84375 -2.171875l-3.8125 0l-0.78125 2.171875l-2.046875 0l3.71875 -9.546875l2.03125 0l3.828125 9.546875zm-3.546875 -3.78125l-1.3125 -3.53125l-1.296875 3.53125l2.609375 0zm10.672028 0.28125l1.859375 0.578125q-0.421875 1.5625 -1.421875 2.328125q-1.0 0.75 -2.53125 0.75q-1.90625 0 -3.140625 -1.296875q-1.21875 -1.296875 -1.21875 -3.546875q0 -2.375 1.234375 -3.6875q1.234375 -1.328125 3.234375 -1.328125q1.75 0 2.84375 1.03125q0.65625 0.609375 0.984375 1.765625l-1.90625 0.453125q-0.171875 -0.75 -0.71875 -1.171875q-0.53125 -0.4375 -1.296875 -0.4375q-1.0625 0 -1.734375 0.765625q-0.65625 0.765625 -0.65625 2.46875q0 1.8125 0.65625 2.578125q0.65625 0.765625 1.6875 0.765625q0.78125 0 1.328125 -0.484375q0.546875 -0.484375 0.796875 -1.53125zm3.5157776 3.5l0 -9.546875l1.9375 0l0 3.765625l3.765625 0l0 -3.765625l1.9375 0l0 9.546875l-1.9375 0l0 -4.171875l-3.765625 0l0 4.171875l-1.9375 0zm9.234528 -4.71875q0 -1.453125 0.4375 -2.4375q0.328125 -0.734375 0.890625 -1.3125q0.5625 -0.578125 1.234375 -0.859375q0.890625 -0.375 2.046875 -0.375q2.109375 0 3.375 1.3125q1.265625 1.296875 1.265625 3.640625q0 2.296875 -1.25 3.609375q-1.25 1.296875 -3.359375 1.296875q-2.125 0 -3.390625 -1.296875q-1.25 -1.296875 -1.25 -3.578125zm1.984375 -0.0625q0 1.625 0.75 2.46875q0.75 0.828125 1.90625 0.828125q1.140625 0 1.875 -0.828125q0.75 -0.828125 0.75 -2.484375q0 -1.640625 -0.71875 -2.453125q-0.71875 -0.8125 -1.90625 -0.8125q-1.203125 0 -1.9375 0.828125q-0.71875 0.8125 -0.71875 2.453125z" fill-rule="nonzero"/><path fill="#0000ff" d="m160.53635 207.89342l1.765625 -0.21875q0.09375 0.6875 0.453125 1.046875q0.375 0.34375 0.90625 0.34375q0.5625 0 0.953125 -0.421875q0.390625 -0.4375 0.390625 -1.15625q0 -0.6875 -0.375 -1.09375q-0.375 -0.40625 -0.90625 -0.40625q-0.34375 0 -0.84375 0.140625l0.203125 -1.5q0.75 0.03125 1.140625 -0.3125q0.390625 -0.34375 0.390625 -0.90625q0 -0.484375 -0.296875 -0.765625q-0.28125 -0.296875 -0.75 -0.296875q-0.46875 0 -0.8125 0.328125q-0.328125 0.328125 -0.390625 0.953125l-1.6875 -0.296875q0.171875 -0.859375 0.515625 -1.375q0.359375 -0.515625 1.0 -0.8125q0.640625 -0.296875 1.421875 -0.296875q1.34375 0 2.15625 0.859375q0.671875 0.703125 0.671875 1.59375q0 1.25 -1.375 2.0q0.828125 0.171875 1.3125 0.78125q0.5 0.609375 0.5 1.484375q0 1.25 -0.921875 2.140625q-0.921875 0.875 -2.28125 0.875q-1.296875 0 -2.15625 -0.734375q-0.84375 -0.75 -0.984375 -1.953125z" fill-rule="nonzero"/><path fill="#000000" fill-opacity="0.0" d="m25.897638 247.25984l150.55118 0l0 50.45668l-150.55118 0z" fill-rule="evenodd"/><path stroke="#000000" stroke-width="1.0" stroke-linejoin="round" stroke-linecap="butt" d="m25.897638 247.25984l150.55118 0l0 50.45668l-150.55118 0z" fill-rule="evenodd"/><path fill="#0000ff" d="m52.716377 257.78818l1.859375 0.578125q-0.421875 1.5625 -1.421875 2.328125q-1.0 0.75 -2.53125 0.75q-1.90625 0 -3.140625 -1.296875q-1.21875 -1.296875 -1.21875 -3.546875q0 -2.3749847 1.234375 -3.6874847q1.234375 -1.328125 3.234375 -1.328125q1.75 0 2.84375 1.03125q0.65625 0.609375 0.984375 1.765625l-1.90625 0.453125q-0.171875 -0.75 -0.71875 -1.171875q-0.53125 -0.4375 -1.296875 -0.4375q-1.0625 0 -1.734375 0.765625q-0.65625 0.765625 -0.65625 2.4687347q0 1.8125 0.65625 2.578125q0.65625 0.765625 1.6875 0.765625q0.78125 0 1.328125 -0.484375q0.546875 -0.484375 0.796875 -1.53125zm3.1251526 -1.21875q0 -1.4531097 0.4375 -2.4374847q0.328125 -0.734375 0.890625 -1.3125q0.5625 -0.578125 1.234375 -0.859375q0.890625 -0.375 2.046875 -0.375q2.109375 0 3.375 1.3125q1.265625 1.296875 1.265625 3.6406097q0 2.296875 -1.25 3.609375q-1.25 1.296875 -3.359375 1.296875q-2.125 0 -3.390625 -1.296875q-1.25 -1.296875 -1.25 -3.578125zm1.984375 -0.0625q0 1.625 0.75 2.46875q0.75 0.828125 1.90625 0.828125q1.140625 0 1.875 -0.828125q0.75 -0.828125 0.75 -2.484375q0 -1.6406097 -0.71875 -2.4531097q-0.71875 -0.8125 -1.90625 -0.8125q-1.203125 0 -1.9375 0.828125q-0.71875 0.8125 -0.71875 2.4531097zm8.74205 4.78125l0 -9.54686l2.890625 0l1.734375 6.5156097l1.703125 -6.5156097l2.890625 0l0 9.54686l-1.78125 0l0 -7.5156097l-1.90625 7.5156097l-1.84375 0l-1.890625 -7.5156097l0 7.5156097l-1.796875 0zm11.118057 -9.54686l1.9375 0l0 5.1718597q0 1.234375 0.0625 1.59375q0.125 0.59375 0.59375 0.953125q0.46875 0.34375 1.265625 0.34375q0.828125 0 1.234375 -0.328125q0.421875 -0.34375 0.5 -0.828125q0.09375 -0.484375 0.09375 -1.625l0 -5.2812347l1.921875 0l0 5.0156097q0 1.71875 -0.15625 2.4375q-0.15625 0.703125 -0.578125 1.1875q-0.421875 0.484375 -1.125 0.78125q-0.703125 0.28125 -1.828125 0.28125q-1.375 0 -2.078125 -0.3125q-0.703125 -0.3125 -1.109375 -0.8125q-0.40625 -0.515625 -0.546875 -1.0625q-0.1875 -0.8125 -0.1875 -2.421875l0 -5.0937347zm9.656403 9.54686l0 -9.54686l1.875 0l3.90625 6.3749847l0 -6.3749847l1.796875 0l0 9.54686l-1.9375 0l-3.84375 -6.2187347l0 6.2187347l-1.796875 0zm9.547028 0l0 -9.54686l1.9375 0l0 9.54686l-1.9375 0zm9.874863 -3.5l1.859375 0.578125q-0.421875 1.5625 -1.421875 2.328125q-1.0 0.75 -2.53125 0.75q-1.90625 0 -3.140625 -1.296875q-1.21875 -1.296875 -1.21875 -3.546875q0 -2.3749847 1.234375 -3.6874847q1.234375 -1.328125 3.234375 -1.328125q1.75 0 2.84375 1.03125q0.65625 0.609375 0.984375 1.765625l-1.90625 0.453125q-0.171875 -0.75 -0.71875 -1.171875q-0.53125 -0.4375 -1.296875 -0.4375q-1.0625 0 -1.734375 0.765625q-0.65625 0.765625 -0.65625 2.4687347q0 1.8125 0.65625 2.578125q0.65625 0.765625 1.6875 0.765625q0.78125 0 1.328125 -0.484375q0.546875 -0.484375 0.796875 -1.53125zm12.125153 3.5l-2.09375 0l-0.84375 -2.171875l-3.8125 0l-0.78125 2.171875l-2.046875 0l3.71875 -9.54686l2.03125 0l3.828125 9.54686zm-3.546875 -3.78125l-1.3125 -3.5312347l-1.296875 3.5312347l2.609375 0zm10.672028 0.28125l1.859375 0.578125q-0.421875 1.5625 -1.421875 2.328125q-1.0 0.75 -2.53125 0.75q-1.90625 0 -3.140625 -1.296875q-1.21875 -1.296875 -1.21875 -3.546875q0 -2.3749847 1.234375 -3.6874847q1.234375 -1.328125 3.234375 -1.328125q1.75 0 2.84375 1.03125q0.65625 0.609375 0.984375 1.765625l-1.90625 0.453125q-0.171875 -0.75 -0.71875 -1.171875q-0.53125 -0.4375 -1.296875 -0.4375q-1.0625 0 -1.734375 0.765625q-0.65625 0.765625 -0.65625 2.4687347q0 1.8125 0.65625 2.578125q0.65625 0.765625 1.6875 0.765625q0.78125 0 1.328125 -0.484375q0.546875 -0.484375 0.796875 -1.53125zm-4.046875 6.125l0 -0.765625q0.671875 0.0625 1.234375 0.0625q0.578125 0 0.859375 -0.203125q0.203125 -0.15625 0.203125 -0.40625q0 -0.21875 -0.203125 -0.390625q-0.203125 -0.15625 -0.625 -0.15625q-0.40625 0 -0.84375 0.125l0.171875 -0.640625q0.5 -0.171875 1.09375 -0.171875q0.8125 0 1.234375 0.359375q0.421875 0.359375 0.421875 0.875q0 0.5625 -0.46875 0.921875q-0.640625 0.5 -1.8125 0.5q-0.84375 0 -1.265625 -0.109375zm7.172035 -7.34375q0 -1.4531097 0.4375 -2.4374847q0.328125 -0.734375 0.890625 -1.3125q0.5625 -0.578125 1.234375 -0.859375q0.890625 -0.375 2.046875 -0.375q2.109375 0 3.375 1.3125q1.265625 1.296875 1.265625 3.6406097q0 2.296875 -1.25 3.609375q-1.25 1.296875 -3.359375 1.296875q-2.125 0 -3.390625 -1.296875q-1.25 -1.296875 -1.25 -3.578125zm1.984375 -0.0625q0 1.625 0.75 2.46875q0.75 0.828125 1.90625 0.828125q1.140625 0 1.875 -0.828125q0.75 -0.828125 0.75 -2.484375q0 -1.6406097 -0.71875 -2.4531097q-0.71875 -0.8125 -1.90625 -0.8125q-1.203125 0 -1.9375 0.828125q-0.71875 0.8125 -0.71875 2.4531097zm1.078125 -5.2812347l-0.828125 0q0 -0.140625 0 -0.234375q0 -0.6875 0.328125 -1.046875q0.328125 -0.375 0.84375 -0.375q0.234375 0 0.421875 0.0625q0.203125 0.046875 0.71875 0.28125q0.515625 0.21875 0.8125 0.21875q0.203125 0 0.34375 -0.125q0.140625 -0.140625 0.1875 -0.4375l0.84375 0q-0.015625 0.875 -0.34375 1.25q-0.3125 0.375 -0.8125 0.375q-0.21875 0 -0.4375 -0.03125q-0.15625 -0.046875 -0.75 -0.265625q-0.59375 -0.234375 -0.875 -0.234375q-0.203125 0 -0.328125 0.125q-0.109375 0.125 -0.125 0.4375zm7.695175 10.062485l0 -9.54686l7.078125 0l0 1.625l-5.15625 0l0 2.109375l4.796875 0l0 1.6093597l-4.796875 0l0 2.59375l5.328125 0l0 1.609375l-7.25 0zm8.40538 -3.109375l1.875 -0.171875q0.171875 0.9375 0.6875 1.390625q0.515625 0.4375 1.390625 0.4375q0.9375 0 1.40625 -0.390625q0.46875 -0.40625 0.46875 -0.921875q0 -0.34375 -0.203125 -0.578125q-0.1875 -0.234375 -0.6875 -0.421875q-0.34375 -0.109375 -1.546875 -0.40625q-1.546875 -0.390625 -2.171875 -0.953125q-0.875 -0.78123474 -0.875 -1.9218597q0 -0.71875 0.40625 -1.359375q0.421875 -0.640625 1.1875 -0.96875q0.78125 -0.328125 1.890625 -0.328125q1.796875 0 2.703125 0.796875q0.90625 0.78125 0.953125 2.09375l-1.921875 0.078125q-0.125 -0.734375 -0.53125 -1.046875q-0.40625 -0.328125 -1.234375 -0.328125q-0.828125 0 -1.3125 0.34375q-0.296875 0.21875 -0.296875 0.59375q0 0.34375 0.28125 0.578125q0.359375 0.3125 1.765625 0.640625q1.40625 0.328125 2.078125 0.68748474q0.6875 0.359375 1.0625 0.96875q0.375 0.609375 0.375 1.515625q0 0.828125 -0.453125 1.546875q-0.453125 0.703125 -1.296875 1.0625q-0.828125 0.34375 -2.0625 0.34375q-1.8125 0 -2.78125 -0.828125q-0.96875 -0.84375 -1.15625 -2.453125z" fill-rule="nonzero"/><path fill="#0000ff" d="m68.01724 277.28818l0 -9.546875l1.9375 0l0 9.546875l-1.9375 0zm3.7811127 0l0 -9.546875l1.875 0l3.90625 6.375l0 -6.375l1.796875 0l0 9.546875l-1.9375 0l-3.84375 -6.21875l0 6.21875l-1.796875 0zm11.765778 0l0 -7.921875l-2.84375 0l0 -1.625l7.59375 0l0 1.625l-2.828125 0l0 7.921875l-1.921875 0zm5.9851074 0l0 -9.546875l7.078125 0l0 1.625l-5.15625 0l0 2.109375l4.796875 0l0 1.609375l-4.796875 0l0 2.59375l5.328125 0l0 1.609375l-7.25 0zm8.889755 0l0 -9.546875l4.0625 0q1.53125 0 2.21875 0.265625q0.703125 0.25 1.109375 0.90625q0.421875 0.65625 0.421875 1.515625q0 1.0625 -0.640625 1.765625q-0.625 0.703125 -1.875 0.890625q0.625 0.359375 1.03125 0.796875q0.40625 0.4375 1.09375 1.546875l1.15625 1.859375l-2.296875 0l-1.390625 -2.078125q-0.75 -1.109375 -1.03125 -1.390625q-0.265625 -0.296875 -0.578125 -0.40625q-0.296875 -0.109375 -0.953125 -0.109375l-0.390625 0l0 3.984375l-1.9375 0zm1.9375 -5.5l1.421875 0q1.390625 0 1.734375 -0.109375q0.34375 -0.125 0.53125 -0.40625q0.203125 -0.296875 0.203125 -0.71875q0 -0.484375 -0.265625 -0.78125q-0.25 -0.296875 -0.71875 -0.375q-0.234375 -0.03125 -1.40625 -0.03125l-1.5 0l0 2.421875zm7.7032776 5.5l0 -9.546875l1.875 0l3.90625 6.375l0 -6.375l1.796875 0l0 9.546875l-1.9375 0l-3.84375 -6.21875l0 6.21875l-1.796875 0zm18.218903 0l-2.09375 0l-0.84375 -2.171875l-3.8125 0l-0.78125 2.171875l-2.046875 0l3.71875 -9.546875l2.03125 0l3.828125 9.546875zm-3.546875 -3.78125l-1.3125 -3.53125l-1.296875 3.53125l2.609375 0zm4.0782776 0.671875l1.875 -0.171875q0.171875 0.9375 0.6875 1.390625q0.515625 0.4375 1.390625 0.4375q0.9375 0 1.40625 -0.390625q0.46875 -0.40625 0.46875 -0.921875q0 -0.34375 -0.203125 -0.578125q-0.1875 -0.234375 -0.6875 -0.421875q-0.34375 -0.109375 -1.546875 -0.40625q-1.546875 -0.390625 -2.171875 -0.953125q-0.875 -0.78125 -0.875 -1.921875q0 -0.71875 0.40625 -1.359375q0.421875 -0.640625 1.1875 -0.96875q0.78125 -0.328125 1.890625 -0.328125q1.796875 0 2.703125 0.796875q0.90625 0.78125 0.953125 2.09375l-1.921875 0.078125q-0.125 -0.734375 -0.53125 -1.046875q-0.40625 -0.328125 -1.234375 -0.328125q-0.828125 0 -1.3125 0.34375q-0.296875 0.21875 -0.296875 0.59375q0 0.34375 0.28125 0.578125q0.359375 0.3125 1.765625 0.640625q1.40625 0.328125 2.078125 0.6875q0.6875 0.359375 1.0625 0.96875q0.375 0.609375 0.375 1.515625q0 0.828125 -0.453125 1.546875q-0.453125 0.703125 -1.296875 1.0625q-0.828125 0.34375 -2.0625 0.34375q-1.8125 0 -2.78125 -0.828125q-0.96875 -0.84375 -1.15625 -2.453125z" fill-rule="nonzero"/><path fill="#0000ff" d="m164.1926 293.28818l0 -1.921875l-3.90625 0l0 -1.59375l4.140625 -6.0625l1.53125 0l0 6.046875l1.1875 0l0 1.609375l-1.1875 0l0 1.921875l-1.765625 0zm0 -3.53125l0 -3.25l-2.203125 3.25l2.203125 0z" fill-rule="nonzero"/><path fill="#000000" fill-opacity="0.0" d="m25.897638 322.12335l150.55118 0l0 50.456696l-150.55118 0z" fill-rule="evenodd"/><path stroke="#000000" stroke-width="1.0" stroke-linejoin="round" stroke-linecap="butt" d="m25.897638 322.12335l150.55118 0l0 50.456696l-150.55118 0z" fill-rule="evenodd"/><path fill="#0000ff" d="m41.54731 344.1517l0 -9.546875l3.09375 0q1.75 0 2.296875 0.15625q0.8125 0.203125 1.359375 0.921875q0.5625 0.71875 0.5625 1.859375q0 0.875 -0.328125 1.484375q-0.3125 0.59375 -0.8125 0.9375q-0.484375 0.34375 -0.984375 0.453125q-0.703125 0.140625 -2.0 0.140625l-1.265625 0l0 3.59375l-1.921875 0zm1.921875 -7.921875l0 2.703125l1.0625 0q1.140625 0 1.515625 -0.140625q0.390625 -0.15625 0.609375 -0.46875q0.21875 -0.328125 0.21875 -0.75q0 -0.515625 -0.3125 -0.859375q-0.296875 -0.34375 -0.765625 -0.421875q-0.34375 -0.0625 -1.390625 -0.0625l-0.9375 0zm14.587677 7.921875l-2.09375 0l-0.84375 -2.171875l-3.8125 0l-0.78125 2.171875l-2.046875 0l3.71875 -9.546875l2.03125 0l3.828125 9.546875zm-3.546875 -3.78125l-1.3125 -3.53125l-1.296875 3.53125l2.609375 0zm4.5626526 3.78125l0 -9.546875l4.0625 0q1.53125 0 2.21875 0.265625q0.703125 0.25 1.109375 0.90625q0.421875 0.65625 0.421875 1.515625q0 1.0625 -0.640625 1.765625q-0.625 0.703125 -1.875 0.890625q0.625 0.359375 1.03125 0.796875q0.40625 0.4375 1.09375 1.546875l1.15625 1.859375l-2.296875 0l-1.390625 -2.078125q-0.75 -1.109375 -1.03125 -1.390625q-0.265625 -0.296875 -0.578125 -0.40625q-0.296875 -0.109375 -0.953125 -0.109375l-0.390625 0l0 3.984375l-1.9375 0zm1.9375 -5.5l1.421875 0q1.390625 0 1.734375 -0.109375q0.34375 -0.125 0.53125 -0.40625q0.203125 -0.296875 0.203125 -0.71875q0 -0.484375 -0.265625 -0.78125q-0.25 -0.296875 -0.71875 -0.375q-0.234375 -0.03125 -1.40625 -0.03125l-1.5 0l0 2.421875zm7.6876526 5.5l0 -9.546875l7.078125 0l0 1.625l-5.15625 0l0 2.109375l4.796875 0l0 1.609375l-4.796875 0l0 2.59375l5.328125 0l0 1.609375l-7.25 0zm14.99913 -3.5l1.859375 0.578125q-0.421875 1.5625 -1.421875 2.328125q-1.0 0.75 -2.53125 0.75q-1.90625 0 -3.140625 -1.296875q-1.21875 -1.296875 -1.21875 -3.546875q0 -2.375 1.234375 -3.6875q1.234375 -1.328125 3.234375 -1.328125q1.75 0 2.84375 1.03125q0.65625 0.609375 0.984375 1.765625l-1.90625 0.453125q-0.171875 -0.75 -0.71875 -1.171875q-0.53125 -0.4375 -1.296875 -0.4375q-1.0625 0 -1.734375 0.765625q-0.65625 0.765625 -0.65625 2.46875q0 1.8125 0.65625 2.578125q0.65625 0.765625 1.6875 0.765625q0.78125 0 1.328125 -0.484375q0.546875 -0.484375 0.796875 -1.53125zm3.5157776 3.5l0 -9.546875l7.078125 0l0 1.625l-5.15625 0l0 2.109375l4.796875 0l0 1.609375l-4.796875 0l0 2.59375l5.328125 0l0 1.609375l-7.25 0zm8.889755 0l0 -9.546875l4.0625 0q1.53125 0 2.21875 0.265625q0.703125 0.25 1.109375 0.90625q0.421875 0.65625 0.421875 1.515625q0 1.0625 -0.640625 1.765625q-0.625 0.703125 -1.875 0.890625q0.625 0.359375 1.03125 0.796875q0.40625 0.4375 1.09375 1.546875l1.15625 1.859375l-2.296875 0l-1.390625 -2.078125q-0.75 -1.109375 -1.03125 -1.390625q-0.265625 -0.296875 -0.578125 -0.40625q-0.296875 -0.109375 -0.953125 -0.109375l-0.390625 0l0 3.984375l-1.9375 0zm1.9375 -5.5l1.421875 0q1.390625 0 1.734375 -0.109375q0.34375 -0.125 0.53125 -0.40625q0.203125 -0.296875 0.203125 -0.71875q0 -0.484375 -0.265625 -0.78125q-0.25 -0.296875 -0.71875 -0.375q-0.234375 -0.03125 -1.40625 -0.03125l-1.5 0l0 2.421875zm11.000015 0.78125q0 -1.453125 0.4375 -2.4375q0.328125 -0.734375 0.890625 -1.3125q0.5625 -0.578125 1.234375 -0.859375q0.890625 -0.375 2.046875 -0.375q2.109375 0 3.375 1.3125q1.265625 1.296875 1.265625 3.640625q0 2.296875 -1.25 3.609375q-1.25 1.296875 -3.359375 1.296875q-2.125 0 -3.390625 -1.296875q-1.25 -1.296875 -1.25 -3.578125zm1.984375 -0.0625q0 1.625 0.75 2.46875q0.75 0.828125 1.90625 0.828125q1.140625 0 1.875 -0.828125q0.75 -0.828125 0.75 -2.484375q0 -1.640625 -0.71875 -2.453125q-0.71875 -0.8125 -1.90625 -0.8125q-1.203125 0 -1.9375 0.828125q-0.71875 0.8125 -0.71875 2.453125zm8.788925 4.78125l0 -9.546875l6.53125 0l0 1.625l-4.609375 0l0 2.25l3.984375 0l0 1.625l-3.984375 0l0 4.046875l-1.921875 0zm8.063232 0l0 -9.546875l1.9375076 0l0 9.546875l-1.9375076 0zm9.87487 -3.5l1.859375 0.578125q-0.421875 1.5625 -1.421875 2.328125q-1.0 0.75 -2.53125 0.75q-1.90625 0 -3.140625 -1.296875q-1.21875 -1.296875 -1.21875 -3.546875q0 -2.375 1.234375 -3.6875q1.234375 -1.328125 3.234375 -1.328125q1.75 0 2.84375 1.03125q0.65625 0.609375 0.984375 1.765625l-1.90625 0.453125q-0.171875 -0.75 -0.71875 -1.171875q-0.53125 -0.4375 -1.296875 -0.4375q-1.0625 0 -1.734375 0.765625q-0.65625 0.765625 -0.65625 2.46875q0 1.8125 0.65625 2.578125q0.65625 0.765625 1.6875 0.765625q0.78125 0 1.328125 -0.484375q0.546875 -0.484375 0.796875 -1.53125zm3.4532776 3.5l0 -9.546875l1.9375 0l0 9.546875l-1.9375 0zm12.374863 0l-2.09375 0l-0.84375 -2.171875l-3.8125 0l-0.78125 2.171875l-2.046875 0l3.71875 -9.546875l2.03125 0l3.828125 9.546875zm-3.546875 -3.78125l-1.3125 -3.53125l-1.296875 3.53125l2.609375 0zm4.6095276 3.78125l0 -9.46875l1.9375 0l0 7.859375l4.78125 0l0 1.609375l-6.71875 0z" fill-rule="nonzero"/><path fill="#0000ff" d="m160.6301 357.69858l1.828125 -0.1875q0.078125 0.609375 0.453125 0.984375q0.390625 0.359375 0.890625 0.359375q0.5625 0 0.953125 -0.46875q0.40625 -0.46875 0.40625 -1.40625q0 -0.875 -0.390625 -1.3125q-0.390625 -0.4375 -1.03125 -0.4375q-0.78125 0 -1.40625 0.6875l-1.484375 -0.203125l0.9375 -4.96875l4.84375 0l0 1.703125l-3.453125 0l-0.296875 1.625q0.625 -0.3125 1.25 -0.3125q1.21875 0 2.0625 0.890625q0.859375 0.890625 0.859375 2.296875q0 1.171875 -0.6875 2.109375q-0.9375 1.25 -2.59375 1.25q-1.3125 0 -2.15625 -0.703125q-0.828125 -0.703125 -0.984375 -1.90625z" fill-rule="nonzero"/><path fill="#000000" fill-opacity="0.0" d="m101.173225 73.125984l0 24.409447" fill-rule="evenodd"/><path stroke="#000000" stroke-width="1.0" stroke-linejoin="round" stroke-linecap="butt" d="m101.173225 73.125984l0 18.409447" fill-rule="evenodd"/><path fill="#000000" stroke="#000000" stroke-width="1.0" stroke-linecap="butt" d="m99.5215 91.53543l1.6517258 4.538101l1.6517334 -4.538101z" fill-rule="evenodd"/><path fill="#000000" fill-opacity="0.0" d="m101.173225 147.98819l0 24.409454" fill-rule="evenodd"/><path stroke="#000000" stroke-width="1.0" stroke-linejoin="round" stroke-linecap="butt" d="m101.173225 147.98819l0 18.409454" fill-rule="evenodd"/><path fill="#000000" stroke="#000000" stroke-width="1.0" stroke-linecap="butt" d="m99.5215 166.39764l1.6517258 4.538086l1.6517334 -4.538086z" fill-rule="evenodd"/><path fill="#000000" fill-opacity="0.0" d="m101.173225 222.85301l0 24.409454" fill-rule="evenodd"/><path stroke="#000000" stroke-width="1.0" stroke-linejoin="round" stroke-linecap="butt" d="m101.173225 222.85301l0 18.409454" fill-rule="evenodd"/><path fill="#000000" stroke="#000000" stroke-width="1.0" stroke-linecap="butt" d="m99.5215 241.26247l1.6517258 4.538101l1.6517334 -4.538101z" fill-rule="evenodd"/><path fill="#000000" fill-opacity="0.0" d="m101.173225 297.71652l0 24.409454" fill-rule="evenodd"/><path stroke="#000000" stroke-width="1.0" stroke-linejoin="round" stroke-linecap="butt" d="m101.173225 297.71652l0 18.409454" fill-rule="evenodd"/><path fill="#000000" stroke="#000000" stroke-width="1.0" stroke-linecap="butt" d="m99.5215 316.12598l1.6517258 4.5381165l1.6517334 -4.5381165z" fill-rule="evenodd"/></g></svg>