<?xml version="1.0" standalone="no"?>
<!DOCTYPE svg PUBLIC "-//W3C//DTD SVG 20010904//EN"
 "http://www.w3.org/TR/2001/REC-SVG-20010904/DTD/svg10.dtd">
<svg version="1.0" xmlns="http://www.w3.org/2000/svg"
 width="1055.000000pt" height="698.000000pt" viewBox="0 0 1055.000000 698.000000"
 preserveAspectRatio="xMidYMid meet">

<g transform="translate(0.000000,698.000000) scale(0.100000,-0.100000)"
fill="#000000" stroke="none">
<path d="M0 4767 l0 -2213 29 -28 c63 -60 65 -183 5 -262 l-34 -44 0 -400 0
-400 25 0 c23 0 25 -4 25 -40 0 -36 -2 -40 -25 -40 l-25 0 0 -105 c0 -87 3
-105 15 -105 11 0 15 -11 15 -40 0 -29 -4 -40 -15 -40 -12 0 -15 -19 -15 -115
l0 -115 35 0 c34 0 35 -1 35 -40 0 -39 -1 -40 -35 -40 l-35 0 0 -370 0 -370
620 0 620 0 0 1710 0 1710 4655 0 4655 0 0 1780 0 1780 -3669 0 -3670 0 30
-72 c33 -80 99 -308 99 -344 0 -12 7 -30 16 -38 8 -9 11 -16 5 -16 -6 0 -11
-11 -11 -25 0 -14 -4 -25 -10 -25 -6 0 -10 -33 -10 -80 l0 -80 2470 0 2470 0
-2 -1437 -3 -1438 -2 1433 -3 1432 -3260 0 -3260 0 -3 -1432 -2 -1433 -3 1438
-2 1437 60 0 60 0 0 68 c0 94 -9 140 -29 145 -14 4 -14 5 2 6 16 1 17 19 17
231 l0 230 -920 0 -920 0 0 -2213z m280 -2477 l0 -300 168 0 167 0 0 -40 0
-40 -215 0 -215 0 3 340 3 340 44 0 45 0 0 -300z m836 20 c103 -249 113 -281
114 -337 0 -62 0 -63 -28 -63 -26 0 -30 7 -67 105 l-39 106 -140 -3 -139 -3
-37 -100 -37 -100 -46 -3 c-26 -2 -47 1 -47 5 0 5 14 44 31 88 17 44 46 118
64 165 87 227 156 403 161 412 3 5 26 8 51 6 l46 -3 113 -275z m-592 -894 c83
-25 131 -75 151 -158 7 -27 6 -28 -37 -28 -42 0 -45 2 -61 39 -27 61 -58 76
-152 76 -93 0 -127 -17 -145 -69 -22 -66 12 -101 120 -126 124 -28 206 -60
242 -93 91 -83 64 -228 -54 -292 -108 -59 -281 -41 -359 38 -37 37 -68 100
-69 140 0 25 3 27 45 27 41 0 45 -2 45 -24 0 -33 39 -86 80 -110 27 -16 52
-21 110 -21 89 0 133 20 157 69 32 68 -4 116 -109 146 -38 11 -101 29 -140 41
-88 25 -151 81 -162 141 -16 85 37 170 126 201 55 20 152 21 212 3z m676 5
c22 -6 25 -13 28 -54 2 -26 1 -47 -1 -47 -3 0 -21 7 -40 15 -75 31 -170 12
-228 -46 -73 -73 -90 -245 -36 -363 19 -42 35 -60 71 -81 58 -34 137 -43 190
-21 21 9 40 16 42 16 10 0 3 -90 -8 -96 -26 -16 -155 -16 -212 0 -234 68 -292
468 -91 622 70 53 201 78 285 55z"/>
<path d="M933 2434 c-12 -38 -36 -105 -52 -149 -17 -44 -31 -81 -31 -82 0 -2
47 -3 105 -3 58 0 105 1 105 3 0 2 -21 59 -46 128 -25 68 -49 135 -53 148 -6
20 -10 13 -28 -45z"/>
<path d="M1850 6750 c0 -223 1 -230 20 -230 19 0 20 7 20 230 0 223 -1 230
-20 230 -19 0 -20 -7 -20 -230z"/>
<path d="M1900 6746 l0 -236 -26 0 c-24 0 -26 -3 -20 -31 3 -17 6 -65 6 -105
l0 -74 730 0 730 0 0 85 c0 56 4 85 11 85 28 0 -36 285 -99 435 l-29 70 -549
3 c-505 2 -552 1 -581 -15 -29 -15 -37 -16 -65 -4 -18 8 -50 16 -70 18 l-38 5
0 -236z m164 178 c26 -10 38 -41 26 -64 -8 -15 -21 -20 -50 -20 -56 0 -70 8
-70 41 0 21 6 32 23 39 27 11 50 12 71 4z m-17 -161 c-41 -3 -56 -7 -50 -16 4
-7 0 -7 -10 2 -9 7 -17 15 -17 17 0 2 30 3 68 2 l67 -2 -58 -3z"/>
<path d="M1997 6913 c-13 -3 -17 -12 -15 -31 3 -24 8 -27 47 -30 57 -4 78 20
45 52 -15 16 -40 18 -77 9z"/>
<path d="M2000 6970 c8 -5 24 -10 35 -10 11 0 27 5 35 10 11 7 1 10 -35 10
-36 0 -46 -3 -35 -10z"/>
<path d="M1780 3271 c0 -12 -9 -21 -26 -25 -20 -5 -25 -12 -22 -34 2 -22 9
-28 36 -30 l32 -3 0 55 c0 31 -4 56 -10 56 -5 0 -10 -9 -10 -19z m0 -50 c0
-11 -5 -23 -11 -27 -15 -9 -33 12 -26 30 9 23 37 20 37 -3z"/>
<path d="M1292 3268 c-7 -7 -12 -24 -12 -38 0 -14 5 -31 12 -38 14 -14 44 -16
52 -3 4 5 -2 7 -12 4 -10 -2 -24 3 -32 12 -19 23 3 69 30 62 11 -3 18 -1 14 4
-8 13 -38 11 -52 -3z"/>
<path d="M1374 3236 c-12 -31 0 -51 31 -51 27 0 30 3 30 30 0 25 -4 30 -28 33
-17 2 -29 -2 -33 -12z m54 -19 c4 -20 -25 -34 -40 -19 -15 15 -1 44 19 40 10
-2 19 -11 21 -21z"/>
<path d="M1461 3212 c1 -27 3 -30 6 -12 8 41 23 48 24 10 1 -20 3 -26 6 -15
10 45 17 50 23 15 l7 -35 2 36 c1 34 0 36 -34 37 -34 1 -35 1 -34 -36z"/>
<path d="M1566 3242 c-3 -6 3 -8 14 -5 11 3 20 1 20 -5 0 -6 -10 -12 -22 -14
-36 -5 -28 -33 10 -36 32 -3 33 -2 30 30 -2 25 -8 34 -25 36 -11 2 -24 -1 -27
-6z m34 -42 c0 -5 -7 -10 -15 -10 -8 0 -15 5 -15 10 0 6 7 10 15 10 8 0 15 -4
15 -10z"/>
<path d="M1640 3216 c0 -42 17 -49 22 -9 4 39 28 42 28 4 0 -17 5 -31 11 -31
6 0 9 14 7 33 -3 28 -7 32 -35 35 -32 3 -33 2 -33 -32z"/>
<path d="M1824 3236 c-12 -31 0 -51 31 -51 27 0 30 3 30 30 0 25 -4 30 -28 33
-17 2 -29 -2 -33 -12z m54 -19 c4 -20 -25 -34 -40 -19 -15 15 -1 44 19 40 10
-2 19 -11 21 -21z"/>
<path d="M1930 3240 c0 -5 5 -10 10 -10 6 0 10 5 10 10 0 6 -4 10 -10 10 -5 0
-10 -4 -10 -10z"/>
<path d="M1930 3190 c0 -5 5 -10 10 -10 6 0 10 5 10 10 0 6 -4 10 -10 10 -5 0
-10 -4 -10 -10z"/>
<path d="M1780 3081 c0 -12 -9 -21 -26 -25 -20 -5 -25 -12 -22 -34 2 -22 9
-28 36 -30 l32 -3 0 55 c0 31 -4 56 -10 56 -5 0 -10 -9 -10 -19z m0 -50 c0
-11 -5 -23 -11 -27 -15 -9 -33 12 -26 30 9 23 37 20 37 -3z"/>
<path d="M1292 3078 c-7 -7 -12 -24 -12 -38 0 -14 5 -31 12 -38 14 -14 44 -16
52 -3 4 5 -2 7 -12 4 -10 -2 -24 3 -32 12 -19 23 3 69 30 62 11 -3 18 -1 14 4
-8 13 -38 11 -52 -3z"/>
<path d="M1374 3046 c-12 -31 0 -51 31 -51 27 0 30 3 30 30 0 25 -4 30 -28 33
-17 2 -29 -2 -33 -12z m54 -19 c4 -20 -25 -34 -40 -19 -15 15 -1 44 19 40 10
-2 19 -11 21 -21z"/>
<path d="M1461 3022 c1 -27 3 -30 6 -12 8 41 23 48 24 10 1 -20 3 -26 6 -15
10 45 17 50 23 15 l7 -35 2 36 c1 34 0 36 -34 37 -34 1 -35 1 -34 -36z"/>
<path d="M1566 3052 c-3 -6 3 -8 14 -5 11 3 20 1 20 -5 0 -6 -10 -12 -22 -14
-36 -5 -28 -33 10 -36 32 -3 33 -2 30 30 -2 25 -8 34 -25 36 -11 2 -24 -1 -27
-6z m34 -42 c0 -5 -7 -10 -15 -10 -8 0 -15 5 -15 10 0 6 7 10 15 10 8 0 15 -4
15 -10z"/>
<path d="M1640 3026 c0 -42 17 -49 22 -9 4 39 28 42 28 4 0 -17 5 -31 11 -31
6 0 9 14 7 33 -3 28 -7 32 -35 35 -32 3 -33 2 -33 -32z"/>
<path d="M1824 3046 c-12 -31 0 -51 31 -51 27 0 30 3 30 30 0 25 -4 30 -28 33
-17 2 -29 -2 -33 -12z m54 -19 c4 -20 -25 -34 -40 -19 -15 15 -1 44 19 40 10
-2 19 -11 21 -21z"/>
<path d="M1930 3050 c0 -5 5 -10 10 -10 6 0 10 5 10 10 0 6 -4 10 -10 10 -5 0
-10 -4 -10 -10z"/>
<path d="M1930 3000 c0 -5 5 -10 10 -10 6 0 10 5 10 10 0 6 -4 10 -10 10 -5 0
-10 -4 -10 -10z"/>
<path d="M1780 2891 c0 -12 -9 -21 -26 -25 -20 -5 -25 -12 -22 -34 2 -22 9
-28 36 -30 l32 -3 0 55 c0 31 -4 56 -10 56 -5 0 -10 -9 -10 -19z m0 -50 c0
-11 -5 -23 -11 -27 -15 -9 -33 12 -26 30 9 23 37 20 37 -3z"/>
<path d="M2121 2903 c-1 -7 -9 -10 -18 -7 -17 5 -17 5 -1 -8 15 -13 15 -15 0
-27 -16 -11 -16 -12 0 -7 9 3 19 0 22 -7 3 -9 5 -8 5 1 1 7 6 10 11 7 6 -3 10
-2 10 4 0 5 -6 12 -12 14 -10 4 -10 6 0 6 6 1 12 6 12 12 0 5 -4 8 -9 5 -5 -4
-12 0 -14 6 -4 10 -6 10 -6 1z"/>
<path d="M2648 2903 c7 -3 12 -23 12 -48 0 -33 -4 -45 -17 -48 -10 -3 0 -5 22
-5 22 0 32 2 23 5 -14 3 -18 15 -18 54 0 40 -3 49 -17 48 -11 0 -13 -3 -5 -6z"/>
<path d="M2931 2903 c-1 -7 -9 -10 -18 -7 -17 5 -17 5 -1 -8 15 -13 15 -15 0
-27 -16 -11 -16 -12 0 -7 9 3 19 0 22 -7 3 -9 5 -8 5 1 1 7 6 10 11 7 6 -3 10
-2 10 4 0 5 -6 12 -12 14 -10 4 -10 6 0 6 6 1 12 6 12 12 0 5 -4 8 -9 5 -5 -4
-12 0 -14 6 -4 10 -6 10 -6 1z"/>
<path d="M1292 2888 c-7 -7 -12 -24 -12 -38 0 -14 5 -31 12 -38 14 -14 44 -16
52 -3 4 5 -2 7 -12 4 -10 -2 -24 3 -32 12 -19 23 3 69 30 62 11 -3 18 -1 14 4
-8 13 -38 11 -52 -3z"/>
<path d="M2192 2888 c-7 -7 -12 -24 -12 -38 0 -14 5 -31 12 -38 14 -14 44 -16
52 -3 4 5 -2 7 -12 4 -10 -2 -24 3 -32 12 -19 23 3 69 30 62 11 -3 18 -1 14 4
-8 13 -38 11 -52 -3z"/>
<path d="M1374 2856 c-12 -31 0 -51 31 -51 27 0 30 3 30 30 0 25 -4 30 -28 33
-17 2 -29 -2 -33 -12z m54 -19 c4 -20 -25 -34 -40 -19 -15 15 -1 44 19 40 10
-2 19 -11 21 -21z"/>
<path d="M1461 2832 c1 -27 3 -30 6 -12 8 41 23 48 24 10 1 -20 3 -26 6 -15
10 45 17 50 23 15 l7 -35 2 36 c1 34 0 36 -34 37 -34 1 -35 1 -34 -36z"/>
<path d="M1566 2862 c-3 -6 3 -8 14 -5 11 3 20 1 20 -5 0 -6 -10 -12 -22 -14
-36 -5 -28 -33 10 -36 32 -3 33 -2 30 30 -2 25 -8 34 -25 36 -11 2 -24 -1 -27
-6z m34 -42 c0 -5 -7 -10 -15 -10 -8 0 -15 5 -15 10 0 6 7 10 15 10 8 0 15 -4
15 -10z"/>
<path d="M1640 2836 c0 -42 17 -49 22 -9 4 39 28 42 28 4 0 -17 5 -31 11 -31
6 0 9 14 7 33 -3 28 -7 32 -35 35 -32 3 -33 2 -33 -32z"/>
<path d="M1824 2856 c-12 -31 0 -51 31 -51 27 0 30 3 30 30 0 25 -4 30 -28 33
-17 2 -29 -2 -33 -12z m54 -19 c4 -20 -25 -34 -40 -19 -15 15 -1 44 19 40 10
-2 19 -11 21 -21z"/>
<path d="M1930 2860 c0 -5 5 -10 10 -10 6 0 10 5 10 10 0 6 -4 10 -10 10 -5 0
-10 -4 -10 -10z"/>
<path d="M2286 2862 c-3 -6 3 -8 14 -5 11 3 20 1 20 -5 0 -6 -10 -12 -22 -14
-36 -5 -28 -33 10 -36 32 -3 33 -2 30 30 -2 25 -8 34 -25 36 -11 2 -24 -1 -27
-6z m34 -42 c0 -5 -7 -10 -15 -10 -8 0 -15 5 -15 10 0 6 7 10 15 10 8 0 15 -4
15 -10z"/>
<path d="M2360 2836 c0 -42 17 -49 22 -9 4 39 28 42 28 4 0 -17 5 -31 11 -31
6 0 9 14 7 33 -3 28 -7 32 -35 35 -32 3 -33 2 -33 -32z"/>
<path d="M2459 2854 c-18 -22 1 -48 37 -51 28 -2 28 -2 4 5 -15 5 -25 15 -25
27 0 12 9 22 25 26 l25 7 -26 1 c-15 1 -32 -6 -40 -15z"/>
<path d="M2552 2861 c-8 -4 -12 -19 -10 -32 2 -20 9 -24 38 -26 23 -1 27 1 10
4 -40 8 -48 23 -11 23 26 0 32 4 29 18 -4 19 -36 27 -56 13z m43 -11 c3 -5 -3
-10 -14 -10 -12 0 -21 5 -21 10 0 6 6 10 14 10 8 0 18 -4 21 -10z"/>
<path d="M2736 2862 c-3 -6 3 -8 14 -5 11 3 20 1 20 -5 0 -6 -10 -12 -22 -14
-36 -5 -28 -33 10 -36 32 -3 33 -2 30 30 -2 25 -8 34 -25 36 -11 2 -24 -1 -27
-6z m34 -42 c0 -5 -7 -10 -15 -10 -8 0 -15 5 -15 10 0 6 7 10 15 10 8 0 15 -4
15 -10z"/>
<path d="M2821 2831 c1 -27 3 -30 6 -11 7 36 19 45 39 29 15 -12 17 -12 12 1
-2 8 -17 15 -31 16 -25 1 -27 -2 -26 -35z"/>
<path d="M1930 2810 c0 -5 5 -10 10 -10 6 0 10 5 10 10 0 6 -4 10 -10 10 -5 0
-10 -4 -10 -10z"/>
<path d="M1780 2701 c0 -12 -9 -21 -26 -25 -20 -5 -25 -12 -22 -34 2 -22 9
-28 36 -30 l32 -3 0 55 c0 31 -4 56 -10 56 -5 0 -10 -9 -10 -19z m0 -50 c0
-11 -5 -23 -11 -27 -15 -9 -33 12 -26 30 9 23 37 20 37 -3z"/>
<path d="M1292 2698 c-7 -7 -12 -24 -12 -38 0 -14 5 -31 12 -38 14 -14 44 -16
52 -3 4 5 -2 7 -12 4 -10 -2 -24 3 -32 12 -19 23 3 69 30 62 11 -3 18 -1 14 4
-8 13 -38 11 -52 -3z"/>
<path d="M1374 2666 c-12 -31 0 -51 31 -51 27 0 30 3 30 30 0 25 -4 30 -28 33
-17 2 -29 -2 -33 -12z m54 -19 c4 -20 -25 -34 -40 -19 -15 15 -1 44 19 40 10
-2 19 -11 21 -21z"/>
<path d="M1461 2642 c1 -27 3 -30 6 -12 8 41 23 48 24 10 1 -20 3 -26 6 -15
10 45 17 50 23 15 l7 -35 2 36 c1 34 0 36 -34 37 -34 1 -35 1 -34 -36z"/>
<path d="M1566 2672 c-3 -6 3 -8 14 -5 11 3 20 1 20 -5 0 -6 -10 -12 -22 -14
-36 -5 -28 -33 10 -36 32 -3 33 -2 30 30 -2 25 -8 34 -25 36 -11 2 -24 -1 -27
-6z m34 -42 c0 -5 -7 -10 -15 -10 -8 0 -15 5 -15 10 0 6 7 10 15 10 8 0 15 -4
15 -10z"/>
<path d="M1640 2646 c0 -42 17 -49 22 -9 4 39 28 42 28 4 0 -17 5 -31 11 -31
6 0 9 14 7 33 -3 28 -7 32 -35 35 -32 3 -33 2 -33 -32z"/>
<path d="M1824 2666 c-12 -31 0 -51 31 -51 27 0 30 3 30 30 0 25 -4 30 -28 33
-17 2 -29 -2 -33 -12z m54 -19 c4 -20 -25 -34 -40 -19 -15 15 -1 44 19 40 10
-2 19 -11 21 -21z"/>
<path d="M1930 2670 c0 -5 5 -10 10 -10 6 0 10 5 10 10 0 6 -4 10 -10 10 -5 0
-10 -4 -10 -10z"/>
<path d="M1930 2620 c0 -5 5 -10 10 -10 6 0 10 5 10 10 0 6 -4 10 -10 10 -5 0
-10 -4 -10 -10z"/>
<path d="M1780 2511 c0 -12 -9 -21 -26 -25 -20 -5 -25 -12 -22 -34 2 -22 9
-28 36 -30 l32 -3 0 55 c0 31 -4 56 -10 56 -5 0 -10 -9 -10 -19z m0 -50 c0
-11 -5 -23 -11 -27 -15 -9 -33 12 -26 30 9 23 37 20 37 -3z"/>
<path d="M1292 2508 c-7 -7 -12 -24 -12 -38 0 -14 5 -31 12 -38 14 -14 44 -16
52 -3 4 5 -2 7 -12 4 -10 -2 -24 3 -32 12 -19 23 3 69 30 62 11 -3 18 -1 14 4
-8 13 -38 11 -52 -3z"/>
<path d="M2102 2473 l-2 -53 33 1 c29 2 29 2 5 6 -24 4 -27 9 -31 51 l-3 47
-2 -52z"/>
<path d="M2193 2513 c12 -3 17 -15 17 -43 0 -28 -5 -40 -17 -43 -10 -3 0 -5
22 -5 22 0 32 2 23 5 -13 3 -18 15 -18 43 0 28 5 40 18 43 9 3 -1 5 -23 5 -22
0 -32 -2 -22 -5z"/>
<path d="M2277 2513 c-14 -14 -6 -34 18 -45 33 -15 32 -36 -2 -41 -21 -4 -19
-4 7 -3 44 1 54 30 16 47 -32 15 -34 36 -3 42 20 4 20 4 -4 6 -14 0 -29 -2
-32 -6z"/>
<path d="M2372 2513 c12 -3 18 -18 21 -51 l3 -47 2 47 c2 35 6 48 20 51 9 3
-1 5 -23 5 -22 0 -32 -2 -23 -5z"/>
<path d="M2458 2470 c-9 -27 -12 -50 -7 -50 5 0 9 5 9 10 0 6 11 10 25 10 14
0 25 -4 25 -10 0 -5 4 -10 9 -10 5 0 2 23 -7 50 -9 28 -21 50 -27 50 -6 0 -18
-22 -27 -50z m42 -7 c0 -7 -7 -13 -15 -13 -16 0 -19 9 -9 35 5 13 8 14 15 3 5
-7 9 -19 9 -25z"/>
<path d="M1374 2476 c-12 -31 0 -51 31 -51 27 0 30 3 30 30 0 25 -4 30 -28 33
-17 2 -29 -2 -33 -12z m54 -19 c4 -20 -25 -34 -40 -19 -15 15 -1 44 19 40 10
-2 19 -11 21 -21z"/>
<path d="M1461 2452 c1 -27 3 -30 6 -12 8 41 23 48 24 10 1 -20 3 -26 6 -15
10 45 17 50 23 15 l7 -35 2 36 c1 34 0 36 -34 37 -34 1 -35 1 -34 -36z"/>
<path d="M1566 2482 c-3 -6 3 -8 14 -5 11 3 20 1 20 -5 0 -6 -10 -12 -22 -14
-36 -5 -28 -33 10 -36 32 -3 33 -2 30 30 -2 25 -8 34 -25 36 -11 2 -24 -1 -27
-6z m34 -42 c0 -5 -7 -10 -15 -10 -8 0 -15 5 -15 10 0 6 7 10 15 10 8 0 15 -4
15 -10z"/>
<path d="M1640 2456 c0 -42 17 -49 22 -9 4 39 28 42 28 4 0 -17 5 -31 11 -31
6 0 9 14 7 33 -3 28 -7 32 -35 35 -32 3 -33 2 -33 -32z"/>
<path d="M1824 2476 c-12 -31 0 -51 31 -51 27 0 30 3 30 30 0 25 -4 30 -28 33
-17 2 -29 -2 -33 -12z m54 -19 c4 -20 -25 -34 -40 -19 -15 15 -1 44 19 40 10
-2 19 -11 21 -21z"/>
<path d="M1930 2480 c0 -5 5 -10 10 -10 6 0 10 5 10 10 0 6 -4 10 -10 10 -5 0
-10 -4 -10 -10z"/>
<path d="M1930 2430 c0 -5 5 -10 10 -10 6 0 10 5 10 10 0 6 -4 10 -10 10 -5 0
-10 -4 -10 -10z"/>
<path d="M2230 2321 c0 -12 -9 -21 -26 -25 -20 -5 -25 -12 -22 -34 2 -22 9
-28 36 -30 l32 -3 0 55 c0 31 -4 56 -10 56 -5 0 -10 -9 -10 -19z m0 -50 c0
-11 -5 -23 -11 -27 -15 -9 -33 12 -26 30 9 23 37 20 37 -3z"/>
<path d="M1290 2315 c-11 -13 -10 -14 4 -9 13 5 16 -1 16 -29 0 -25 -5 -37
-17 -40 -10 -3 0 -5 22 -5 22 0 34 2 28 5 -8 3 -13 23 -13 49 0 47 -16 58 -40
29z"/>
<path d="M1931 2318 c0 -9 -9 -19 -18 -21 -17 -4 -17 -5 0 -6 12 -1 17 -10 17
-31 0 -26 3 -30 28 -29 23 2 24 2 5 6 -16 3 -23 11 -23 28 0 17 7 25 23 28 22
4 22 4 0 6 -12 0 -24 9 -26 19 -4 15 -5 15 -6 0z"/>
<path d="M1472 2291 c-8 -4 -12 -19 -10 -32 2 -20 9 -24 38 -26 23 -1 27 1 10
4 -40 8 -48 23 -11 23 26 0 32 4 29 18 -4 19 -36 27 -56 13z m43 -11 c3 -5 -3
-10 -14 -10 -12 0 -21 5 -21 10 0 6 6 10 14 10 8 0 18 -4 21 -10z"/>
<path d="M1550 2266 c0 -42 17 -49 22 -9 4 39 28 42 28 4 0 -17 5 -31 11 -31
6 0 9 14 7 33 -3 28 -7 32 -35 35 -32 3 -33 2 -33 -32z"/>
<path d="M1649 2284 c-18 -22 1 -48 37 -51 28 -2 28 -2 4 5 -15 5 -25 15 -25
27 0 12 9 22 25 26 l25 7 -26 1 c-15 1 -32 -6 -40 -15z"/>
<path d="M1734 2286 c-12 -31 0 -51 31 -51 27 0 30 3 30 30 0 25 -4 30 -28 33
-17 2 -29 -2 -33 -12z m54 -19 c4 -20 -25 -34 -40 -19 -15 15 -1 44 19 40 10
-2 19 -11 21 -21z"/>
<path d="M1820 2266 c0 -42 17 -49 22 -9 4 39 28 42 28 4 0 -17 5 -31 11 -31
6 0 9 14 7 33 -3 28 -7 32 -35 35 -32 3 -33 2 -33 -32z"/>
<path d="M2011 2261 c1 -27 3 -30 6 -11 7 36 19 45 39 29 15 -12 17 -12 12 1
-2 8 -17 15 -31 16 -25 1 -27 -2 -26 -35z"/>
<path d="M2106 2292 c-3 -6 3 -8 14 -5 11 3 20 1 20 -5 0 -6 -10 -12 -22 -14
-36 -5 -28 -33 10 -36 32 -3 33 -2 30 30 -2 25 -8 34 -25 36 -11 2 -24 -1 -27
-6z m34 -42 c0 -5 -7 -10 -15 -10 -8 0 -15 5 -15 10 0 6 7 10 15 10 8 0 15 -4
15 -10z"/>
<path d="M2274 2286 c-12 -31 0 -51 31 -51 27 0 30 3 30 30 0 25 -4 30 -28 33
-17 2 -29 -2 -33 -12z m54 -19 c4 -20 -25 -34 -40 -19 -15 15 -1 44 19 40 10
-2 19 -11 21 -21z"/>
<path d="M4390 2131 c0 -12 -9 -21 -26 -25 -20 -5 -25 -12 -22 -34 2 -22 9
-28 36 -30 l32 -3 0 55 c0 31 -4 56 -10 56 -5 0 -10 -9 -10 -19z m0 -50 c0
-11 -5 -23 -11 -27 -15 -9 -33 12 -26 30 9 23 37 20 37 -3z"/>
<path d="M4710 2130 c0 -11 5 -20 10 -20 6 0 10 9 10 20 0 11 -4 20 -10 20 -5
0 -10 -9 -10 -20z"/>
<path d="M4740 2130 c0 -11 5 -20 10 -20 6 0 10 9 10 20 0 11 -4 20 -10 20 -5
0 -10 -9 -10 -20z"/>
<path d="M5340 2130 c0 -11 5 -20 10 -20 6 0 10 9 10 20 0 11 -4 20 -10 20 -5
0 -10 -9 -10 -20z"/>
<path d="M5370 2130 c0 -11 5 -20 10 -20 6 0 10 9 10 20 0 11 -4 20 -10 20 -5
0 -10 -9 -10 -20z"/>
<path d="M2912 2093 l-2 -53 33 1 c29 2 29 2 5 6 -24 4 -27 9 -31 51 l-3 47
-2 -52z"/>
<path d="M2984 2118 c3 -13 6 -35 6 -50 0 -34 13 -36 27 -5 l10 22 7 -22 c9
-28 26 -30 26 -4 0 10 3 33 6 50 4 20 3 31 -5 31 -6 0 -11 -18 -12 -42 0 -24
-3 -36 -6 -28 -2 8 -7 22 -10 30 -3 11 -8 9 -18 -10 -14 -25 -14 -25 -15 13 0
20 -5 37 -11 37 -7 0 -9 -9 -5 -22z"/>
<path d="M3080 2091 c0 -28 5 -51 10 -51 6 0 10 9 10 19 0 12 9 21 26 25 19 5
25 12 22 29 -2 17 -11 23 -35 25 l-33 3 0 -50z m55 19 c0 -8 -8 -16 -17 -18
-13 -2 -18 3 -18 18 0 15 5 20 18 18 9 -2 17 -10 17 -18z"/>
<path d="M3183 2132 c-19 -12 -25 -55 -10 -76 19 -26 63 -15 71 19 12 47 -24
80 -61 57z m42 -42 c0 -28 -4 -35 -20 -35 -13 0 -21 8 -23 23 -5 34 5 54 25
50 13 -2 18 -13 18 -38z"/>
<path d="M3272 2093 l-2 -53 33 1 c29 2 29 2 5 6 -24 4 -27 9 -31 51 l-3 47
-2 -52z"/>
<path d="M3359 2106 c12 -18 21 -42 21 -52 1 -11 7 -2 14 19 8 20 19 44 26 52
8 10 9 15 2 15 -6 0 -17 -10 -23 -22 l-12 -22 -15 22 c-24 36 -36 25 -13 -12z"/>
<path d="M3452 2093 l-2 -53 33 1 c29 2 29 2 5 6 -24 4 -27 9 -31 51 l-3 47
-2 -52z"/>
<path d="M3543 2133 c12 -3 17 -15 17 -43 0 -28 -5 -40 -17 -43 -10 -3 0 -5
22 -5 22 0 32 2 23 5 -13 3 -18 15 -18 43 0 28 5 40 18 43 9 3 -1 5 -23 5 -22
0 -32 -2 -22 -5z"/>
<path d="M3622 2088 l1 -53 6 45 6 45 17 -42 c24 -58 38 -54 36 10 l-1 52 -6
-45 -6 -45 -17 43 c-24 57 -38 53 -36 -10z"/>
<path d="M3720 2090 l0 -50 33 1 c30 2 30 2 5 6 -35 5 -39 40 -5 46 l22 4 -22
2 c-33 2 -29 29 5 34 25 4 25 4 -5 6 l-33 1 0 -50z"/>
<path d="M3992 2128 c-7 -7 -12 -24 -12 -38 0 -14 5 -31 12 -38 14 -14 44 -16
52 -3 4 5 -2 7 -12 4 -10 -2 -24 3 -32 12 -19 23 3 69 30 62 11 -3 18 -1 14 4
-8 13 -38 11 -52 -3z"/>
<path d="M4798 2090 c-9 -27 -12 -50 -7 -50 5 0 9 5 9 10 0 6 11 10 25 10 14
0 25 -4 25 -10 0 -5 4 -10 9 -10 5 0 2 23 -7 50 -9 28 -21 50 -27 50 -6 0 -18
-22 -27 -50z m42 -7 c0 -7 -7 -13 -15 -13 -16 0 -19 9 -9 35 5 13 8 14 15 3 5
-7 9 -19 9 -25z"/>
<path d="M4892 2093 l-2 -53 33 1 c29 2 29 2 5 6 -24 4 -27 9 -31 51 l-3 47
-2 -52z"/>
<path d="M4978 2090 c9 -27 21 -50 27 -50 6 0 18 23 27 50 9 28 13 50 9 50 -4
0 -14 -19 -21 -42 l-13 -43 -14 43 c-21 60 -35 53 -15 -8z"/>
<path d="M5072 2128 c-18 -18 -15 -77 4 -85 29 -11 49 11 49 53 0 31 -4 40
-20 42 -11 1 -26 -3 -33 -10z m42 -22 c7 -30 -2 -56 -19 -56 -15 0 -28 42 -19
64 9 24 31 19 38 -8z"/>
<path d="M5085 2090 c-3 -5 -2 -10 4 -10 5 0 13 5 16 10 3 6 2 10 -4 10 -5 0
-13 -4 -16 -10z"/>
<path d="M5162 2128 c-18 -18 -15 -77 4 -85 29 -11 49 11 49 53 0 31 -4 40
-20 42 -11 1 -26 -3 -33 -10z m42 -22 c7 -30 -2 -56 -19 -56 -15 0 -28 42 -19
64 9 24 31 19 38 -8z"/>
<path d="M5175 2090 c-3 -5 -2 -10 4 -10 5 0 13 5 16 10 3 6 2 10 -4 10 -5 0
-13 -4 -16 -10z"/>
<path d="M5250 2125 c-11 -13 -10 -14 4 -9 13 5 16 -1 16 -29 0 -25 -5 -37
-17 -40 -10 -3 0 -5 22 -5 22 0 34 2 28 5 -8 3 -13 23 -13 49 0 47 -16 58 -40
29z"/>
<path d="M4086 2102 c-3 -6 3 -8 14 -5 11 3 20 1 20 -5 0 -6 -10 -12 -22 -14
-36 -5 -28 -33 10 -36 32 -3 33 -2 30 30 -2 25 -8 34 -25 36 -11 2 -24 -1 -27
-6z m34 -42 c0 -5 -7 -10 -15 -10 -8 0 -15 5 -15 10 0 6 7 10 15 10 8 0 15 -4
15 -10z"/>
<path d="M4161 2072 c1 -27 3 -30 6 -12 8 41 23 48 24 10 1 -20 3 -26 6 -15
10 45 17 50 23 15 l7 -35 2 36 c1 34 0 36 -34 37 -34 1 -35 1 -34 -36z"/>
<path d="M4266 2102 c-3 -6 3 -8 14 -5 11 3 20 1 20 -5 0 -6 -10 -12 -22 -14
-36 -5 -28 -33 10 -36 32 -3 33 -2 30 30 -2 25 -8 34 -25 36 -11 2 -24 -1 -27
-6z m34 -42 c0 -5 -7 -10 -15 -10 -8 0 -15 5 -15 10 0 6 7 10 15 10 8 0 15 -4
15 -10z"/>
<path d="M4446 2102 c-3 -6 3 -8 14 -5 11 3 20 1 20 -5 0 -6 -10 -12 -22 -14
-36 -5 -28 -33 10 -36 32 -3 33 -2 30 30 -2 25 -8 34 -25 36 -11 2 -24 -1 -27
-6z m34 -42 c0 -5 -7 -10 -15 -10 -8 0 -15 5 -15 10 0 6 7 10 15 10 8 0 15 -4
15 -10z"/>
<path d="M4540 2100 c0 -5 5 -10 10 -10 6 0 10 5 10 10 0 6 -4 10 -10 10 -5 0
-10 -4 -10 -10z"/>
<path d="M4540 2050 c0 -5 5 -10 10 -10 6 0 10 5 10 10 0 6 -4 10 -10 10 -5 0
-10 -4 -10 -10z"/>
<path d="M5200 1941 c0 -12 -9 -21 -26 -25 -20 -5 -25 -12 -22 -34 2 -22 9
-28 36 -30 l32 -3 0 55 c0 31 -4 56 -10 56 -5 0 -10 -9 -10 -19z m0 -50 c0
-11 -5 -23 -11 -27 -15 -9 -33 12 -26 30 9 23 37 20 37 -3z"/>
<path d="M5650 1941 c0 -12 -9 -21 -26 -25 -20 -5 -25 -12 -22 -34 2 -22 9
-28 36 -30 l32 -3 0 55 c0 31 -4 56 -10 56 -5 0 -10 -9 -10 -19z m0 -50 c0
-11 -5 -23 -11 -27 -15 -9 -33 12 -26 30 9 23 37 20 37 -3z"/>
<path d="M5798 1953 c7 -3 12 -23 12 -48 0 -33 -4 -45 -17 -48 -10 -3 0 -5 22
-5 22 0 32 2 23 5 -14 3 -18 15 -18 54 0 40 -3 49 -17 48 -11 0 -13 -3 -5 -6z"/>
<path d="M3810 1900 l0 -50 33 1 c30 2 30 2 5 6 -35 5 -39 40 -5 46 l22 4 -22
2 c-33 2 -29 29 5 34 25 4 25 4 -5 6 l-33 1 0 -50z"/>
<path d="M4530 1900 l0 -50 33 1 c30 2 30 2 5 6 -35 5 -39 40 -5 46 l22 4 -22
2 c-33 2 -29 29 5 34 25 4 25 4 -5 6 l-33 1 0 -50z"/>
<path d="M3900 1904 c0 -9 9 -18 20 -21 29 -8 25 -21 -7 -26 -21 -4 -19 -4 7
-3 40 1 50 29 13 34 -13 2 -23 7 -23 12 0 5 10 11 23 13 19 4 18 4 -5 6 -20 1
-28 -4 -28 -15z"/>
<path d="M3980 1871 c0 -28 5 -51 10 -51 6 0 10 6 10 14 0 8 12 17 26 20 20 5
25 12 22 34 -2 22 -9 28 -35 30 l-33 3 0 -50z m55 13 c0 -10 -8 -20 -17 -22
-18 -3 -26 27 -11 42 12 11 28 0 28 -20z"/>
<path d="M4086 1912 c-3 -6 3 -8 14 -5 11 3 20 1 20 -5 0 -6 -10 -12 -22 -14
-36 -5 -28 -33 10 -36 32 -3 33 -2 30 30 -2 25 -8 34 -25 36 -11 2 -24 -1 -27
-6z m34 -42 c0 -5 -7 -10 -15 -10 -8 0 -15 5 -15 10 0 6 7 10 15 10 8 0 15 -4
15 -10z"/>
<path d="M4172 1908 c-17 -17 -15 -26 8 -55 11 -14 20 -21 20 -14 0 6 8 11 18
12 11 1 8 4 -8 8 -16 4 -25 14 -25 26 0 12 9 22 25 26 l25 7 -25 1 c-15 1 -31
-4 -38 -11z"/>
<path d="M4254 1906 c-12 -31 0 -51 31 -51 27 0 30 3 30 30 0 25 -4 30 -28 33
-17 2 -29 -2 -33 -12z m54 -19 c4 -20 -25 -34 -40 -19 -15 15 -1 44 19 40 10
-2 19 -11 21 -21z"/>
<path d="M4360 1910 c0 -5 5 -10 10 -10 6 0 10 5 10 10 0 6 -4 10 -10 10 -5 0
-10 -4 -10 -10z"/>
<path d="M4620 1904 c0 -9 9 -18 20 -21 29 -8 25 -21 -7 -26 -21 -4 -19 -4 7
-3 40 1 50 29 13 34 -13 2 -23 7 -23 12 0 5 10 11 23 13 19 4 18 4 -5 6 -20 1
-28 -4 -28 -15z"/>
<path d="M4700 1871 c0 -28 5 -51 10 -51 6 0 10 6 10 14 0 8 12 17 26 20 20 5
25 12 22 34 -2 22 -9 28 -35 30 l-33 3 0 -50z m55 13 c0 -10 -8 -20 -17 -22
-18 -3 -26 27 -11 42 12 11 28 0 28 -20z"/>
<path d="M4806 1912 c-3 -6 3 -8 14 -5 11 3 20 1 20 -5 0 -6 -10 -12 -22 -14
-36 -5 -28 -33 10 -36 32 -3 33 -2 30 30 -2 25 -8 34 -25 36 -11 2 -24 -1 -27
-6z m34 -42 c0 -5 -7 -10 -15 -10 -8 0 -15 5 -15 10 0 6 7 10 15 10 8 0 15 -4
15 -10z"/>
<path d="M4892 1908 c-17 -17 -15 -26 8 -55 11 -14 20 -21 20 -14 0 6 8 11 18
12 11 1 8 4 -8 8 -16 4 -25 14 -25 26 0 12 9 22 25 26 l25 7 -25 1 c-15 1 -31
-4 -38 -11z"/>
<path d="M4974 1906 c-12 -31 0 -51 31 -51 27 0 30 3 30 30 0 25 -4 30 -28 33
-17 2 -29 -2 -33 -12z m54 -19 c4 -20 -25 -34 -40 -19 -15 15 -1 44 19 40 10
-2 19 -11 21 -21z"/>
<path d="M5244 1906 c-12 -31 0 -51 31 -51 27 0 30 3 30 30 0 25 -4 30 -28 33
-17 2 -29 -2 -33 -12z m54 -19 c4 -20 -25 -34 -40 -19 -15 15 -1 44 19 40 10
-2 19 -11 21 -21z"/>
<path d="M5421 1882 c1 -27 3 -30 6 -12 8 41 23 48 24 10 1 -20 3 -26 6 -15
10 45 17 50 23 15 l7 -35 2 36 c1 34 0 36 -34 37 -34 1 -35 1 -34 -36z"/>
<path d="M5514 1906 c-12 -31 0 -51 31 -51 27 0 30 3 30 30 0 25 -4 30 -28 33
-17 2 -29 -2 -33 -12z m54 -19 c4 -20 -25 -34 -40 -19 -15 15 -1 44 19 40 10
-2 19 -11 21 -21z"/>
<path d="M5702 1911 c-8 -4 -12 -19 -10 -32 2 -20 9 -24 38 -26 23 -1 27 1 10
4 -40 8 -48 23 -11 23 26 0 32 4 29 18 -4 19 -36 27 -56 13z m43 -11 c3 -5 -3
-10 -14 -10 -12 0 -21 5 -21 10 0 6 6 10 14 10 8 0 18 -4 21 -10z"/>
<path d="M5874 1906 c-12 -31 0 -51 31 -51 27 0 30 3 30 30 0 25 -4 30 -28 33
-17 2 -29 -2 -33 -12z m54 -19 c4 -20 -25 -34 -40 -19 -15 15 -1 44 19 40 10
-2 19 -11 21 -21z"/>
<path d="M4360 1860 c0 -5 5 -10 10 -10 6 0 10 5 10 10 0 6 -4 10 -10 10 -5 0
-10 -4 -10 -10z"/>
<path d="M4100 1760 c0 -5 5 -10 10 -10 6 0 10 5 10 10 0 6 -4 10 -10 10 -5 0
-10 -4 -10 -10z"/>
<path d="M4358 1763 c7 -3 12 -23 12 -48 0 -33 -4 -45 -17 -48 -10 -3 0 -5 22
-5 22 0 32 2 23 5 -14 3 -18 15 -18 54 0 40 -3 49 -17 48 -11 0 -13 -3 -5 -6z"/>
<path d="M4570 1751 c0 -12 -9 -21 -26 -25 -20 -5 -25 -12 -22 -34 2 -22 9
-28 36 -30 l32 -3 0 55 c0 31 -4 56 -10 56 -5 0 -10 -9 -10 -19z m0 -50 c0
-11 -5 -23 -11 -27 -15 -9 -33 12 -26 30 9 23 37 20 37 -3z"/>
<path d="M5173 1753 c-4 -10 -11 -21 -17 -25 -7 -5 -7 -8 2 -8 7 0 12 -13 12
-30 0 -16 5 -30 10 -30 6 0 10 13 10 29 0 20 6 31 18 34 16 4 16 5 0 6 -26 2
-22 29 5 34 19 4 18 4 -6 6 -18 1 -30 -5 -34 -16z"/>
<path d="M5240 1715 c0 -50 2 -55 23 -55 33 0 49 15 45 41 -2 16 -11 25 -25
27 -15 2 -23 10 -23 23 0 10 -4 19 -10 19 -5 0 -10 -25 -10 -55z m55 -21 c0
-10 -8 -20 -17 -22 -18 -3 -26 27 -11 42 12 11 28 0 28 -20z"/>
<path d="M3800 1726 c0 -19 -3 -41 -6 -50 -3 -9 -1 -16 5 -16 6 0 11 17 12 38
0 35 1 36 11 12 l10 -25 14 30 13 30 1 -42 c0 -25 5 -43 11 -43 6 0 8 7 5 16
-3 9 -6 31 -6 50 0 41 -17 45 -27 7 l-6 -28 -10 28 c-12 38 -27 34 -27 -7z"/>
<path d="M3906 1722 c-3 -6 3 -8 14 -5 11 3 20 1 20 -5 0 -6 -10 -12 -22 -14
-36 -5 -28 -33 10 -36 32 -3 33 -2 30 30 -2 25 -8 34 -25 36 -11 2 -24 -1 -27
-6z m34 -42 c0 -5 -7 -10 -15 -10 -8 0 -15 5 -15 10 0 6 7 10 15 10 8 0 15 -4
15 -10z"/>
<path d="M3980 1696 c0 -42 17 -49 22 -9 4 39 28 42 28 4 0 -17 5 -31 11 -31
6 0 9 14 7 33 -3 28 -7 32 -35 35 -32 3 -33 2 -33 -32z"/>
<path d="M4088 1723 c19 -7 15 -51 -5 -56 -10 -3 0 -5 22 -5 22 0 32 2 23 5
-12 3 -18 14 -18 34 0 21 -5 29 -17 28 -11 0 -13 -3 -5 -6z"/>
<path d="M4160 1681 c0 -28 5 -51 10 -51 6 0 10 6 10 14 0 8 12 17 26 20 20 5
25 12 22 34 -2 22 -9 28 -35 30 l-33 3 0 -50z m55 13 c0 -10 -8 -20 -17 -22
-18 -3 -26 27 -11 42 12 11 28 0 28 -20z"/>
<path d="M4252 1698 c3 -29 7 -33 36 -36 31 -3 32 -2 32 32 0 42 -17 49 -22 9
-4 -39 -28 -42 -28 -4 0 17 -5 31 -11 31 -6 0 -9 -14 -7 -32z"/>
<path d="M4446 1722 c-3 -6 3 -8 14 -5 11 3 20 1 20 -5 0 -6 -10 -12 -22 -14
-36 -5 -28 -33 10 -36 32 -3 33 -2 30 30 -2 25 -8 34 -25 36 -11 2 -24 -1 -27
-6z m34 -42 c0 -5 -7 -10 -15 -10 -8 0 -15 5 -15 10 0 6 7 10 15 10 8 0 15 -4
15 -10z"/>
<path d="M4614 1716 c-12 -31 0 -51 31 -51 27 0 30 3 30 30 0 25 -4 30 -28 33
-17 2 -29 -2 -33 -12z m54 -19 c4 -20 -25 -34 -40 -19 -15 15 -1 44 19 40 10
-2 19 -11 21 -21z"/>
<path d="M4711 1691 c1 -27 3 -30 6 -11 7 36 19 45 39 29 15 -12 17 -12 12 1
-2 8 -17 15 -31 16 -25 1 -27 -2 -26 -35z"/>
<path d="M5069 1714 c-18 -22 1 -48 37 -51 28 -2 28 -2 4 5 -15 5 -25 15 -25
27 0 12 9 22 25 26 l25 7 -26 1 c-15 1 -32 -6 -40 -15z"/>
<path d="M5346 1722 c-3 -6 3 -8 14 -5 11 3 20 1 20 -5 0 -6 -10 -12 -22 -14
-36 -5 -28 -33 10 -36 32 -3 33 -2 30 30 -2 25 -8 34 -25 36 -11 2 -24 -1 -27
-6z m34 -42 c0 -5 -7 -10 -15 -10 -8 0 -15 5 -15 10 0 6 7 10 15 10 8 0 15 -4
15 -10z"/>
<path d="M4898 1713 c12 -2 30 -2 40 0 9 3 -1 5 -23 4 -22 0 -30 -2 -17 -4z"/>
<path d="M4898 1683 c12 -2 30 -2 40 0 9 3 -1 5 -23 4 -22 0 -30 -2 -17 -4z"/>
<path d="M2630 1525 c0 -50 2 -55 23 -55 33 0 49 15 45 41 -2 16 -11 25 -25
27 -15 2 -23 10 -23 23 0 10 -4 19 -10 19 -5 0 -10 -25 -10 -55z m55 -21 c0
-10 -8 -20 -17 -22 -18 -3 -26 27 -11 42 12 11 28 0 28 -20z"/>
<path d="M2840 1570 c0 -5 5 -10 10 -10 6 0 10 5 10 10 0 6 -4 10 -10 10 -5 0
-10 -4 -10 -10z"/>
<path d="M2548 1520 c-9 -27 -12 -50 -7 -50 5 0 9 5 9 10 0 6 11 10 25 10 14
0 25 -4 25 -10 0 -5 4 -10 9 -10 5 0 2 23 -7 50 -9 28 -21 50 -27 50 -6 0 -18
-22 -27 -50z m42 -7 c0 -7 -7 -13 -15 -13 -16 0 -19 9 -9 35 5 13 8 14 15 3 5
-7 9 -19 9 -25z"/>
<path d="M2731 1501 c1 -27 3 -30 6 -11 7 36 19 45 39 29 15 -12 17 -12 12 1
-2 8 -17 15 -31 16 -25 1 -27 -2 -26 -35z"/>
<path d="M2828 1533 c19 -7 15 -51 -5 -56 -10 -3 0 -5 22 -5 22 0 32 2 23 5
-12 3 -18 14 -18 34 0 21 -5 29 -17 28 -11 0 -13 -3 -5 -6z"/>
<path d="M2911 1501 c1 -27 3 -30 6 -11 7 36 19 45 39 29 15 -12 17 -12 12 1
-2 8 -17 15 -31 16 -25 1 -27 -2 -26 -35z"/>
<path d="M1652 1333 l-2 -53 33 1 c29 2 29 2 5 6 -24 4 -27 9 -31 51 l-3 47
-2 -52z"/>
<path d="M2741 1368 c0 -9 -9 -19 -18 -21 -17 -4 -17 -5 0 -6 12 -1 17 -10 17
-31 0 -26 3 -30 28 -29 23 2 24 2 5 6 -16 3 -23 11 -23 28 0 17 7 25 23 28 22
4 22 4 0 6 -12 0 -24 9 -26 19 -4 15 -5 15 -6 0z"/>
<path d="M3011 1368 c0 -9 -9 -19 -18 -21 -17 -4 -17 -5 0 -6 12 -1 17 -10 17
-31 0 -26 3 -30 28 -29 23 2 24 2 5 6 -16 3 -23 11 -23 28 0 17 7 25 23 28 22
4 22 4 0 6 -12 0 -24 9 -26 19 -4 15 -5 15 -6 0z"/>
<path d="M3542 1368 c-18 -18 -15 -77 4 -85 29 -11 49 11 49 53 0 31 -4 40
-20 42 -11 1 -26 -3 -33 -10z m42 -22 c7 -30 -2 -56 -19 -56 -15 0 -28 42 -19
64 9 24 31 19 38 -8z"/>
<path d="M3555 1330 c-3 -5 -2 -10 4 -10 5 0 13 5 16 10 3 6 2 10 -4 10 -5 0
-13 -4 -16 -10z"/>
<path d="M3722 1368 c-18 -18 -15 -77 4 -85 29 -11 49 11 49 53 0 31 -4 40
-20 42 -11 1 -26 -3 -33 -10z m42 -22 c7 -30 -2 -56 -19 -56 -15 0 -28 42 -19
64 9 24 31 19 38 -8z"/>
<path d="M3735 1330 c-3 -5 -2 -10 4 -10 5 0 13 5 16 10 3 6 2 10 -4 10 -5 0
-13 -4 -16 -10z"/>
<path d="M3812 1368 c-18 -18 -15 -77 4 -85 29 -11 49 11 49 53 0 31 -4 40
-20 42 -11 1 -26 -3 -33 -10z m42 -22 c7 -30 -2 -56 -19 -56 -15 0 -28 42 -19
64 9 24 31 19 38 -8z"/>
<path d="M3825 1330 c-3 -5 -2 -10 4 -10 5 0 13 5 16 10 3 6 2 10 -4 10 -5 0
-13 -4 -16 -10z"/>
<path d="M3902 1368 c-18 -18 -15 -77 4 -85 29 -11 49 11 49 53 0 31 -4 40
-20 42 -11 1 -26 -3 -33 -10z m42 -22 c7 -30 -2 -56 -19 -56 -15 0 -28 42 -19
64 9 24 31 19 38 -8z"/>
<path d="M3915 1330 c-3 -5 -2 -10 4 -10 5 0 13 5 16 10 3 6 2 10 -4 10 -5 0
-13 -4 -16 -10z"/>
<path d="M3992 1368 c-18 -18 -15 -77 4 -85 29 -11 49 11 49 53 0 31 -4 40
-20 42 -11 1 -26 -3 -33 -10z m42 -22 c7 -30 -2 -56 -19 -56 -15 0 -28 42 -19
64 9 24 31 19 38 -8z"/>
<path d="M4005 1330 c-3 -5 -2 -10 4 -10 5 0 13 5 16 10 3 6 2 10 -4 10 -5 0
-13 -4 -16 -10z"/>
<path d="M1746 1342 c-3 -6 3 -8 14 -5 11 3 20 1 20 -5 0 -6 -10 -12 -22 -14
-36 -5 -28 -33 10 -36 32 -3 33 -2 30 30 -2 25 -8 34 -25 36 -11 2 -24 -1 -27
-6z m34 -42 c0 -5 -7 -10 -15 -10 -8 0 -15 5 -15 10 0 6 7 10 15 10 8 0 15 -4
15 -10z"/>
<path d="M1831 1311 c1 -27 3 -30 6 -11 7 36 19 45 39 29 15 -12 17 -12 12 1
-2 8 -17 15 -31 16 -25 1 -27 -2 -26 -35z"/>
<path d="M1915 1338 c-3 -7 -4 -29 -2 -48 2 -31 5 -35 32 -35 20 0 31 6 33 18
3 13 -4 17 -30 18 -21 1 -26 3 -13 6 25 6 38 18 41 38 3 19 -54 21 -61 3z m45
-13 c0 -8 -7 -15 -15 -15 -8 0 -15 7 -15 15 0 8 7 15 15 15 8 0 15 -7 15 -15z
m5 -55 c-3 -5 -15 -10 -26 -10 -10 0 -19 5 -19 10 0 6 12 10 26 10 14 0 23 -4
19 -10z"/>
<path d="M2002 1318 c3 -29 7 -33 36 -36 31 -3 32 -2 32 32 0 42 -17 49 -22 9
-4 -39 -28 -42 -28 -4 0 17 -5 31 -11 31 -6 0 -9 -14 -7 -32z"/>
<path d="M2101 1311 c1 -27 3 -30 6 -11 7 36 19 45 39 29 15 -12 17 -12 12 1
-2 8 -17 15 -31 16 -25 1 -27 -2 -26 -35z"/>
<path d="M2196 1342 c-3 -6 3 -8 14 -5 11 3 20 1 20 -5 0 -6 -10 -12 -22 -14
-36 -5 -28 -33 10 -36 32 -3 33 -2 30 30 -2 25 -8 34 -25 36 -11 2 -24 -1 -27
-6z m34 -42 c0 -5 -7 -10 -15 -10 -8 0 -15 5 -15 10 0 6 7 10 15 10 8 0 15 -4
15 -10z"/>
<path d="M2369 1334 c-18 -22 1 -48 37 -51 28 -2 28 -2 4 5 -15 5 -25 15 -25
27 0 12 9 22 25 26 l25 7 -26 1 c-15 1 -32 -6 -40 -15z"/>
<path d="M2454 1336 c-12 -31 0 -51 31 -51 27 0 30 3 30 30 0 25 -4 30 -28 33
-17 2 -29 -2 -33 -12z m54 -19 c4 -20 -25 -34 -40 -19 -15 15 -1 44 19 40 10
-2 19 -11 21 -21z"/>
<path d="M2540 1316 c0 -42 17 -49 22 -9 4 39 28 42 28 4 0 -17 5 -31 11 -31
6 0 9 14 7 33 -3 28 -7 32 -35 35 -32 3 -33 2 -33 -32z"/>
<path d="M2640 1334 c0 -9 9 -18 20 -21 29 -8 25 -21 -7 -26 -21 -4 -19 -4 7
-3 40 1 50 29 13 34 -13 2 -23 7 -23 12 0 5 10 11 23 13 19 4 18 4 -5 6 -20 1
-28 -4 -28 -15z"/>
<path d="M2826 1342 c-3 -6 3 -8 14 -5 11 3 20 1 20 -5 0 -6 -10 -12 -22 -14
-36 -5 -28 -33 10 -36 32 -3 33 -2 30 30 -2 25 -8 34 -25 36 -11 2 -24 -1 -27
-6z m34 -42 c0 -5 -7 -10 -15 -10 -8 0 -15 5 -15 10 0 6 7 10 15 10 8 0 15 -4
15 -10z"/>
<path d="M2900 1316 c0 -42 17 -49 22 -9 4 39 28 42 28 4 0 -17 5 -31 11 -31
6 0 9 14 7 33 -3 28 -7 32 -35 35 -32 3 -33 2 -33 -32z"/>
<path d="M3092 1341 c-8 -4 -12 -19 -10 -32 2 -20 9 -24 38 -26 23 -1 27 1 10
4 -40 8 -48 23 -11 23 26 0 32 4 29 18 -4 19 -36 27 -56 13z m43 -11 c3 -5 -3
-10 -14 -10 -12 0 -21 5 -21 10 0 6 6 10 14 10 8 0 18 -4 21 -10z"/>
<path d="M3640 1290 c0 -5 7 -10 15 -10 8 0 15 5 15 10 0 6 -7 10 -15 10 -8 0
-15 -4 -15 -10z"/>
<path d="M4520 1176 c-85 -17 -150 -34 -145 -38 6 -3 71 -18 145 -33 74 -14
143 -29 153 -31 11 -4 17 0 17 10 0 14 21 16 160 16 l160 0 0 40 0 40 -160 0
c-136 0 -160 2 -160 15 0 8 -3 15 -7 14 -5 -1 -78 -15 -163 -33z"/>
<path d="M2575 1190 c-8 -13 5 -13 25 0 13 8 13 10 -2 10 -9 0 -20 -4 -23 -10z"/>
<path d="M3174 1175 c-9 -24 3 -45 27 -45 28 0 19 -23 -12 -31 -22 -7 -23 -7
-2 -8 43 -2 71 57 41 87 -17 17 -47 15 -54 -3z m50 -10 c3 -9 -1 -18 -10 -22
-19 -7 -39 11 -30 26 10 16 33 13 40 -4z"/>
<path d="M3260 1165 c0 -20 5 -25 26 -25 34 0 29 -31 -6 -41 l-25 -7 26 -1
c48 -2 68 44 24 55 -31 8 -33 31 -2 37 16 3 13 5 -10 6 -29 1 -33 -2 -33 -24z"/>
<path d="M3378 1183 c12 -2 22 -9 22 -14 0 -5 -10 -14 -22 -19 l-23 -9 23 0
c34 -1 30 -38 -5 -44 l-28 -5 29 2 c31 1 59 31 41 44 -5 4 -10 16 -10 27 0 14
-7 20 -25 21 -22 1 -22 0 -2 -3z"/>
<path d="M3452 1178 c-18 -18 -15 -77 4 -85 29 -11 49 11 49 53 0 31 -4 40
-20 42 -11 1 -26 -3 -33 -10z m42 -22 c7 -30 -2 -56 -19 -56 -15 0 -28 42 -19
64 9 24 31 19 38 -8z"/>
<path d="M3465 1140 c-3 -5 -2 -10 4 -10 5 0 13 5 16 10 3 6 2 10 -4 10 -5 0
-13 -4 -16 -10z"/>
<path d="M3530 1165 c0 -20 5 -25 26 -25 34 0 29 -31 -6 -41 l-25 -7 26 -1
c48 -2 68 44 24 55 -31 8 -33 31 -2 37 16 3 13 5 -10 6 -29 1 -33 -2 -33 -24z"/>
<path d="M3625 1181 c-4 -7 2 -10 16 -8 32 3 33 -16 4 -52 l-27 -31 39 1 c24
1 30 3 15 6 -22 4 -23 6 -7 23 23 25 16 64 -12 68 -11 2 -24 -2 -28 -7z"/>
<path d="M3715 1181 c-4 -7 2 -10 16 -8 32 3 33 -16 4 -52 l-27 -31 39 1 c24
1 30 3 15 6 -22 4 -23 6 -7 23 23 25 16 64 -12 68 -11 2 -24 -2 -28 -7z"/>
<path d="M3890 1165 c0 -20 5 -25 26 -25 34 0 29 -31 -6 -41 l-25 -7 26 -1
c48 -2 68 44 24 55 -31 8 -33 31 -2 37 16 3 13 5 -10 6 -29 1 -33 -2 -33 -24z"/>
<path d="M3980 1165 c0 -20 5 -25 26 -25 34 0 29 -31 -6 -41 l-25 -7 26 -1
c48 -2 68 44 24 55 -31 8 -33 31 -2 37 16 3 13 5 -10 6 -29 1 -33 -2 -33 -24z"/>
<path d="M4075 1180 c-4 -6 -2 -17 4 -24 7 -9 7 -16 -1 -24 -17 -17 -1 -42 27
-42 29 0 43 23 26 43 -7 10 -7 17 0 24 6 6 8 16 5 22 -9 14 -53 14 -61 1z m45
-16 c0 -17 -22 -14 -28 4 -2 7 3 12 12 12 9 0 16 -7 16 -16z m4 -55 c-8 -14
-34 -11 -34 4 0 8 3 17 7 20 9 9 34 -13 27 -24z"/>
<path d="M4171 1150 l-22 -40 25 0 c13 0 26 -6 28 -12 3 -9 9 -8 22 5 10 9 13
17 7 17 -6 0 -11 16 -11 35 0 47 -21 45 -49 -5z m29 -10 c0 -11 -7 -20 -15
-20 -13 0 -14 4 -5 20 6 11 13 20 15 20 3 0 5 -9 5 -20z"/>
<path d="M2556 1152 c-3 -6 3 -8 14 -5 11 3 20 1 20 -5 0 -6 -10 -12 -22 -14
-36 -5 -28 -33 10 -36 32 -3 33 -2 30 30 -2 25 -8 34 -25 36 -11 2 -24 -1 -27
-6z m34 -42 c0 -5 -7 -10 -15 -10 -8 0 -15 5 -15 10 0 6 7 10 15 10 8 0 15 -4
15 -10z"/>
<path d="M2641 1121 c1 -27 3 -30 6 -11 7 36 19 45 39 29 15 -12 17 -12 12 1
-2 8 -17 15 -31 16 -25 1 -27 -2 -26 -35z"/>
<path d="M2732 1151 c-8 -4 -12 -19 -10 -32 2 -20 9 -24 38 -26 23 -1 27 1 10
4 -40 8 -48 23 -11 23 26 0 32 4 29 18 -4 19 -36 27 -56 13z m43 -11 c3 -5 -3
-10 -14 -10 -12 0 -21 5 -21 10 0 6 6 10 14 10 8 0 18 -4 21 -10z"/>
<path d="M2826 1152 c-3 -6 3 -8 14 -5 11 3 20 1 20 -5 0 -6 -10 -12 -22 -14
-36 -5 -28 -33 10 -36 32 -3 33 -2 30 30 -2 25 -8 34 -25 36 -11 2 -24 -1 -27
-6z m34 -42 c0 -5 -7 -10 -15 -10 -8 0 -15 5 -15 10 0 6 7 10 15 10 8 0 15 -4
15 -10z"/>
<path d="M3820 1100 c0 -5 7 -10 15 -10 8 0 15 5 15 10 0 6 -7 10 -15 10 -8 0
-15 -4 -15 -10z"/>
<path d="M2840 1000 c0 -5 5 -10 10 -10 6 0 10 5 10 10 0 6 -4 10 -10 10 -5 0
-10 -4 -10 -10z"/>
<path d="M3191 988 c0 -9 -9 -19 -18 -21 -17 -4 -17 -5 0 -6 12 -1 17 -10 17
-31 0 -26 3 -30 28 -29 23 2 24 2 5 6 -16 3 -23 11 -23 28 0 17 7 25 23 28 22
4 22 4 0 6 -12 0 -24 9 -26 19 -4 15 -5 15 -6 0z"/>
<path d="M3630 985 c-11 -13 -10 -14 4 -9 13 5 16 -1 16 -29 0 -25 -5 -37 -17
-40 -10 -3 0 -5 22 -5 22 0 34 2 28 5 -8 3 -13 23 -13 49 0 47 -16 58 -40 29z"/>
<path d="M3738 993 c12 -2 22 -9 22 -14 0 -5 -10 -14 -22 -19 l-23 -9 23 0
c34 -1 30 -38 -5 -44 l-28 -5 29 2 c31 1 59 31 41 44 -5 4 -10 16 -10 27 0 14
-7 20 -25 21 -22 1 -22 0 -2 -3z"/>
<path d="M3812 988 c-18 -18 -15 -77 4 -85 29 -11 49 11 49 53 0 31 -4 40 -20
42 -11 1 -26 -3 -33 -10z m42 -22 c7 -30 -2 -56 -19 -56 -15 0 -28 42 -19 64
9 24 31 19 38 -8z"/>
<path d="M3825 950 c-3 -5 -2 -10 4 -10 5 0 13 5 16 10 3 6 2 10 -4 10 -5 0
-13 -4 -16 -10z"/>
<path d="M3913 993 c32 -5 32 -4 7 -53 -11 -22 -17 -40 -12 -40 7 0 52 82 52
95 0 3 -17 4 -37 4 -31 -2 -33 -3 -10 -6z"/>
<path d="M3985 991 c-4 -7 2 -10 16 -8 32 3 33 -16 4 -52 l-27 -31 39 1 c24 1
30 3 15 6 -22 4 -23 6 -7 23 23 25 16 64 -12 68 -11 2 -24 -2 -28 -7z"/>
<path d="M4164 985 c-9 -24 3 -45 27 -45 28 0 19 -23 -12 -31 -22 -7 -23 -7
-2 -8 43 -2 71 57 41 87 -17 17 -47 15 -54 -3z m50 -10 c3 -9 -1 -18 -10 -22
-19 -7 -39 11 -30 26 10 16 33 13 40 -4z"/>
<path d="M4250 975 c0 -20 5 -25 26 -25 34 0 29 -31 -6 -41 l-25 -7 26 -1 c48
-2 68 44 24 55 -31 8 -33 31 -2 37 16 3 13 5 -10 6 -29 1 -33 -2 -33 -24z"/>
<path d="M4345 991 c-4 -7 2 -10 16 -8 32 3 33 -16 4 -52 l-27 -31 39 1 c24 1
30 3 15 6 -22 4 -23 6 -7 23 23 25 16 64 -12 68 -11 2 -24 -2 -28 -7z"/>
<path d="M4430 975 c0 -20 5 -25 26 -25 34 0 29 -31 -6 -41 l-25 -7 26 -1 c48
-2 68 44 24 55 -31 8 -33 31 -2 37 16 3 13 5 -10 6 -29 1 -33 -2 -33 -24z"/>
<path d="M4725 965 c-82 -18 -143 -35 -135 -39 12 -5 296 -66 307 -66 1 0 3 7
3 15 0 13 24 15 155 15 l155 0 0 40 0 40 -155 0 c-131 0 -155 2 -155 15 0 19
5 19 -175 -20z"/>
<path d="M2369 954 c-18 -22 1 -48 37 -51 28 -2 28 -2 4 5 -15 5 -25 15 -25
27 0 12 9 22 25 26 l25 7 -26 1 c-15 1 -32 -6 -40 -15z"/>
<path d="M2454 956 c-12 -31 0 -51 31 -51 27 0 30 3 30 30 0 25 -4 30 -28 33
-17 2 -29 -2 -33 -12z m54 -19 c4 -20 -25 -34 -40 -19 -15 15 -1 44 19 40 10
-2 19 -11 21 -21z"/>
<path d="M2541 932 c1 -27 3 -30 6 -12 8 41 23 48 24 10 1 -20 3 -26 6 -15 10
45 17 50 23 15 l7 -35 2 36 c1 34 0 36 -34 37 -34 1 -35 1 -34 -36z"/>
<path d="M2630 921 c0 -28 5 -51 10 -51 6 0 10 6 10 14 0 8 12 17 26 20 20 5
25 12 22 34 -2 22 -9 28 -35 30 l-33 3 0 -50z m55 13 c0 -10 -8 -20 -17 -22
-18 -3 -26 27 -11 42 12 11 28 0 28 -20z"/>
<path d="M2731 931 c1 -27 3 -30 6 -11 7 36 19 45 39 29 15 -12 17 -12 12 1
-2 8 -17 15 -31 16 -25 1 -27 -2 -26 -35z"/>
<path d="M2828 963 c19 -7 15 -51 -5 -56 -10 -3 0 -5 22 -5 22 0 32 2 23 5
-12 3 -18 14 -18 34 0 21 -5 29 -17 28 -11 0 -13 -3 -5 -6z"/>
<path d="M2901 932 c1 -27 3 -30 6 -12 8 41 23 48 24 10 1 -20 3 -26 6 -15 10
45 17 50 23 15 l7 -35 2 36 c1 34 0 36 -34 37 -34 1 -35 1 -34 -36z"/>
<path d="M3002 961 c-8 -4 -12 -19 -10 -32 2 -20 9 -24 38 -26 23 -1 27 1 10
4 -40 8 -48 23 -11 23 26 0 32 4 29 18 -4 19 -36 27 -56 13z m43 -11 c3 -5 -3
-10 -14 -10 -12 0 -21 5 -21 10 0 6 6 10 14 10 8 0 18 -4 21 -10z"/>
<path d="M3080 936 c0 -42 17 -49 22 -9 4 39 28 42 28 4 0 -17 5 -31 11 -31 6
0 9 14 7 33 -3 28 -7 32 -35 35 -32 3 -33 2 -33 -32z"/>
<path d="M3264 956 c-12 -31 0 -51 31 -51 27 0 30 3 30 30 0 25 -4 30 -28 33
-17 2 -29 -2 -33 -12z m54 -19 c4 -20 -25 -34 -40 -19 -15 15 -1 44 19 40 10
-2 19 -11 21 -21z"/>
<path d="M4090 910 c0 -5 7 -10 15 -10 8 0 15 5 15 10 0 6 -7 10 -15 10 -8 0
-15 -4 -15 -10z"/>
<path d="M2741 798 c0 -9 -9 -19 -18 -21 -17 -4 -17 -5 0 -6 12 -1 17 -10 17
-31 0 -26 3 -30 28 -29 23 2 24 2 5 6 -16 3 -23 11 -23 28 0 17 7 25 23 28 22
4 22 4 0 6 -12 0 -24 9 -26 19 -4 15 -5 15 -6 0z"/>
<path d="M3080 805 c0 -3 5 -14 12 -24 9 -15 8 -24 -5 -45 -19 -28 -8 -36 13
-11 12 14 15 14 30 0 26 -23 32 -18 13 11 -14 21 -14 29 -4 46 16 26 5 37 -13
12 -14 -18 -15 -18 -21 -1 -6 15 -25 25 -25 12z"/>
<path d="M3270 795 c-11 -13 -10 -14 4 -9 13 5 16 -1 16 -29 0 -25 -5 -37 -17
-40 -10 -3 0 -5 22 -5 22 0 34 2 28 5 -8 3 -13 23 -13 49 0 47 -16 58 -40 29z"/>
<path d="M3373 803 c32 -5 32 -4 7 -53 -11 -22 -17 -40 -12 -40 7 0 52 82 52
95 0 3 -17 4 -37 4 -31 -2 -33 -3 -10 -6z"/>
<path d="M3445 800 c-4 -6 -2 -17 4 -24 7 -9 7 -16 -1 -24 -17 -17 -1 -42 27
-42 29 0 43 23 26 43 -7 10 -7 17 0 24 6 6 8 16 5 22 -9 14 -53 14 -61 1z m45
-16 c0 -17 -22 -14 -28 4 -2 7 3 12 12 12 9 0 16 -7 16 -16z m4 -55 c-8 -14
-34 -11 -34 4 0 8 3 17 7 20 9 9 34 -13 27 -24z"/>
<path d="M3540 795 c-11 -13 -10 -14 4 -9 13 5 16 -1 16 -29 0 -25 -5 -37 -17
-40 -10 -3 0 -5 22 -5 22 0 34 2 28 5 -8 3 -13 23 -13 49 0 47 -16 58 -40 29z"/>
<path d="M3620 785 c0 -20 5 -25 26 -25 34 0 29 -31 -6 -41 l-25 -7 26 -1 c48
-2 68 44 24 55 -31 8 -33 31 -2 37 16 3 13 5 -10 6 -29 1 -33 -2 -33 -24z"/>
<path d="M3812 798 c-18 -18 -15 -77 4 -85 29 -11 49 11 49 53 0 31 -4 40 -20
42 -11 1 -26 -3 -33 -10z m42 -22 c7 -30 -2 -56 -19 -56 -15 0 -28 42 -19 64
9 24 31 19 38 -8z"/>
<path d="M3825 760 c-3 -5 -2 -10 4 -10 5 0 13 5 16 10 3 6 2 10 -4 10 -5 0
-13 -4 -16 -10z"/>
<path d="M3902 798 c-18 -18 -15 -77 4 -85 29 -11 49 11 49 53 0 31 -4 40 -20
42 -11 1 -26 -3 -33 -10z m42 -22 c7 -30 -2 -56 -19 -56 -15 0 -28 42 -19 64
9 24 31 19 38 -8z"/>
<path d="M3915 760 c-3 -5 -2 -10 4 -10 5 0 13 5 16 10 3 6 2 10 -4 10 -5 0
-13 -4 -16 -10z"/>
<path d="M3985 801 c-4 -7 2 -10 16 -8 32 3 33 -16 4 -52 l-27 -31 39 1 c24 1
30 3 15 6 -22 4 -23 6 -7 23 23 25 16 64 -12 68 -11 2 -24 -2 -28 -7z"/>
<path d="M4080 795 c-11 -13 -10 -14 4 -9 13 5 16 -1 16 -29 0 -25 -5 -37 -17
-40 -10 -3 0 -5 22 -5 22 0 34 2 28 5 -8 3 -13 23 -13 49 0 47 -16 58 -40 29z"/>
<path d="M4349 776 c12 -18 21 -42 21 -52 1 -11 7 -2 14 19 8 20 19 44 26 52
8 10 9 15 2 15 -6 0 -17 -10 -23 -22 l-12 -22 -15 22 c-24 36 -36 25 -13 -12z"/>
<path d="M4531 770 l-22 -40 25 0 c13 0 26 -6 28 -12 3 -9 9 -8 22 5 10 9 13
17 7 17 -6 0 -11 16 -11 35 0 47 -21 45 -49 -5z m29 -10 c0 -11 -7 -20 -15
-20 -13 0 -14 4 -5 20 6 11 13 20 15 20 3 0 5 -9 5 -20z"/>
<path d="M4620 795 c-11 -13 -10 -14 4 -9 13 5 16 -1 16 -29 0 -25 -5 -37 -17
-40 -10 -3 0 -5 22 -5 22 0 34 2 28 5 -8 3 -13 23 -13 49 0 47 -16 58 -40 29z"/>
<path d="M4704 795 c-9 -24 3 -45 27 -45 28 0 19 -23 -12 -31 -22 -7 -23 -7
-2 -8 43 -2 71 57 41 87 -17 17 -47 15 -54 -3z m50 -10 c3 -9 -1 -18 -10 -22
-19 -7 -39 11 -30 26 10 16 33 13 40 -4z"/>
<path d="M4802 798 c-18 -18 -15 -77 4 -85 29 -11 49 11 49 53 0 31 -4 40 -20
42 -11 1 -26 -3 -33 -10z m42 -22 c7 -30 -2 -56 -19 -56 -15 0 -28 42 -19 64
9 24 31 19 38 -8z"/>
<path d="M4815 760 c-3 -5 -2 -10 4 -10 5 0 13 5 16 10 3 6 2 10 -4 10 -5 0
-13 -4 -16 -10z"/>
<path d="M4975 800 c-4 -6 -2 -17 4 -24 7 -9 7 -16 -1 -24 -17 -17 -1 -42 27
-42 29 0 43 23 26 43 -7 10 -7 17 0 24 6 6 8 16 5 22 -9 14 -53 14 -61 1z m45
-16 c0 -17 -22 -14 -28 4 -2 7 3 12 12 12 9 0 16 -7 16 -16z m4 -55 c-8 -14
-34 -11 -34 4 0 8 3 17 7 20 9 9 34 -13 27 -24z"/>
<path d="M5065 800 c-4 -6 -2 -17 4 -24 7 -9 7 -16 -1 -24 -17 -17 -1 -42 27
-42 29 0 43 23 26 43 -7 10 -7 17 0 24 6 6 8 16 5 22 -9 14 -53 14 -61 1z m45
-16 c0 -17 -22 -14 -28 4 -2 7 3 12 12 12 9 0 16 -7 16 -16z m4 -55 c-8 -14
-34 -11 -34 4 0 8 3 17 7 20 9 9 34 -13 27 -24z"/>
<path d="M5178 803 c12 -2 22 -9 22 -14 0 -5 -10 -14 -22 -19 l-23 -9 23 0
c34 -1 30 -38 -5 -44 l-28 -5 29 2 c31 1 59 31 41 44 -5 4 -10 16 -10 27 0 14
-7 20 -25 21 -22 1 -22 0 -2 -3z"/>
<path d="M5250 795 c-11 -13 -10 -14 4 -9 13 5 16 -1 16 -29 0 -25 -5 -37 -17
-40 -10 -3 0 -5 22 -5 22 0 34 2 28 5 -8 3 -13 23 -13 49 0 47 -16 58 -40 29z"/>
<path d="M5533 803 l27 -4 -26 -45 -26 -44 39 1 c31 2 33 3 10 6 l-28 4 26 45
26 44 -38 -1 c-30 -2 -32 -3 -10 -6z"/>
<path d="M5972 798 c-18 -18 -15 -77 4 -85 29 -11 49 11 49 53 0 31 -4 40 -20
42 -11 1 -26 -3 -33 -10z m42 -22 c7 -30 -2 -56 -19 -56 -15 0 -28 42 -19 64
9 24 31 19 38 -8z"/>
<path d="M5985 760 c-3 -5 -2 -10 4 -10 5 0 13 5 16 10 3 6 2 10 -4 10 -5 0
-13 -4 -16 -10z"/>
<path d="M6152 798 c-18 -18 -15 -77 4 -85 29 -11 49 11 49 53 0 31 -4 40 -20
42 -11 1 -26 -3 -33 -10z m42 -22 c7 -30 -2 -56 -19 -56 -15 0 -28 42 -19 64
9 24 31 19 38 -8z"/>
<path d="M6165 760 c-3 -5 -2 -10 4 -10 5 0 13 5 16 10 3 6 2 10 -4 10 -5 0
-13 -4 -16 -10z"/>
<path d="M6242 798 c-18 -18 -15 -77 4 -85 29 -11 49 11 49 53 0 31 -4 40 -20
42 -11 1 -26 -3 -33 -10z m42 -22 c7 -30 -2 -56 -19 -56 -15 0 -28 42 -19 64
9 24 31 19 38 -8z"/>
<path d="M6255 760 c-3 -5 -2 -10 4 -10 5 0 13 5 16 10 3 6 2 10 -4 10 -5 0
-13 -4 -16 -10z"/>
<path d="M6332 798 c-18 -18 -15 -77 4 -85 29 -11 49 11 49 53 0 31 -4 40 -20
42 -11 1 -26 -3 -33 -10z m42 -22 c7 -30 -2 -56 -19 -56 -15 0 -28 42 -19 64
9 24 31 19 38 -8z"/>
<path d="M6345 760 c-3 -5 -2 -10 4 -10 5 0 13 5 16 10 3 6 2 10 -4 10 -5 0
-13 -4 -16 -10z"/>
<path d="M6422 798 c-18 -18 -15 -77 4 -85 29 -11 49 11 49 53 0 31 -4 40 -20
42 -11 1 -26 -3 -33 -10z m42 -22 c7 -30 -2 -56 -19 -56 -15 0 -28 42 -19 64
9 24 31 19 38 -8z"/>
<path d="M6435 760 c-3 -5 -2 -10 4 -10 5 0 13 5 16 10 3 6 2 10 -4 10 -5 0
-13 -4 -16 -10z"/>
<path d="M2180 746 c0 -42 17 -49 22 -9 4 39 28 42 28 4 0 -17 5 -31 11 -31 6
0 9 14 7 33 -3 28 -7 32 -35 35 -32 3 -33 2 -33 -32z"/>
<path d="M2274 766 c-12 -31 0 -51 31 -51 27 0 30 3 30 30 0 25 -4 30 -28 33
-17 2 -29 -2 -33 -12z m54 -19 c4 -20 -25 -34 -40 -19 -15 15 -1 44 19 40 10
-2 19 -11 21 -21z"/>
<path d="M2450 731 c0 -28 5 -51 10 -51 6 0 10 6 10 14 0 8 12 17 26 20 20 5
25 12 22 34 -2 22 -9 28 -35 30 l-33 3 0 -50z m55 13 c0 -10 -8 -20 -17 -22
-18 -3 -26 27 -11 42 12 11 28 0 28 -20z"/>
<path d="M2544 766 c-12 -31 0 -51 31 -51 27 0 30 3 30 30 0 25 -4 30 -28 33
-17 2 -29 -2 -33 -12z m54 -19 c4 -20 -25 -34 -40 -19 -15 15 -1 44 19 40 10
-2 19 -11 21 -21z"/>
<path d="M2630 746 c0 -42 17 -49 22 -9 4 39 28 42 28 4 0 -17 5 -31 11 -31 6
0 9 14 7 33 -3 28 -7 32 -35 35 -32 3 -33 2 -33 -32z"/>
<path d="M2814 766 c-12 -31 0 -51 31 -51 27 0 30 3 30 30 0 25 -4 30 -28 33
-17 2 -29 -2 -33 -12z m54 -19 c4 -20 -25 -34 -40 -19 -15 15 -1 44 19 40 10
-2 19 -11 21 -21z"/>
<path d="M3188 763 c12 -2 30 -2 40 0 9 3 -1 5 -23 4 -22 0 -30 -2 -17 -4z"/>
<path d="M4448 763 c12 -2 30 -2 40 0 9 3 -1 5 -23 4 -22 0 -30 -2 -17 -4z"/>
<path d="M5618 763 c12 -2 30 -2 40 0 9 3 -1 5 -23 4 -22 0 -30 -2 -17 -4z"/>
<path d="M3188 733 c12 -2 30 -2 40 0 9 3 -1 5 -23 4 -22 0 -30 -2 -17 -4z"/>
<path d="M4448 733 c12 -2 30 -2 40 0 9 3 -1 5 -23 4 -22 0 -30 -2 -17 -4z"/>
<path d="M5618 733 c12 -2 30 -2 40 0 9 3 -1 5 -23 4 -22 0 -30 -2 -17 -4z"/>
<path d="M3730 720 c0 -5 7 -10 15 -10 8 0 15 5 15 10 0 6 -7 10 -15 10 -8 0
-15 -4 -15 -10z"/>
<path d="M4900 720 c0 -5 7 -10 15 -10 8 0 15 5 15 10 0 6 -7 10 -15 10 -8 0
-15 -4 -15 -10z"/>
<path d="M6070 720 c0 -5 7 -10 15 -10 8 0 15 5 15 10 0 6 -7 10 -15 10 -8 0
-15 -4 -15 -10z"/>
<path d="M2741 608 c0 -9 -9 -19 -18 -21 -17 -4 -17 -5 0 -6 12 -1 17 -10 17
-31 0 -26 3 -30 28 -29 23 2 24 2 5 6 -16 3 -23 11 -23 28 0 17 7 25 23 28 22
4 22 4 0 6 -12 0 -24 9 -26 19 -4 15 -5 15 -6 0z"/>
<path d="M3080 615 c0 -3 5 -14 12 -24 9 -15 8 -24 -5 -45 -19 -28 -8 -36 13
-11 12 14 15 14 30 0 26 -23 32 -18 13 11 -14 21 -14 29 -4 46 16 26 5 37 -13
12 -14 -18 -15 -18 -21 -1 -6 15 -25 25 -25 12z"/>
<path d="M3270 605 c-11 -13 -10 -14 4 -9 13 5 16 -1 16 -29 0 -25 -5 -37 -17
-40 -10 -3 0 -5 22 -5 22 0 34 2 28 5 -8 3 -13 23 -13 49 0 47 -16 58 -40 29z"/>
<path d="M3373 613 c32 -5 32 -4 7 -53 -11 -22 -17 -40 -12 -40 7 0 52 82 52
95 0 3 -17 4 -37 4 -31 -2 -33 -3 -10 -6z"/>
<path d="M3445 610 c-4 -6 -2 -17 4 -24 7 -9 7 -16 -1 -24 -17 -17 -1 -42 27
-42 29 0 43 23 26 43 -7 10 -7 17 0 24 6 6 8 16 5 22 -9 14 -53 14 -61 1z m45
-16 c0 -9 -5 -14 -12 -12 -18 6 -21 28 -4 28 9 0 16 -7 16 -16z m4 -55 c-8
-14 -34 -11 -34 4 0 8 3 17 7 20 9 9 34 -13 27 -24z"/>
<path d="M3540 605 c-11 -13 -10 -14 4 -9 13 5 16 -1 16 -29 0 -25 -5 -37 -17
-40 -10 -3 0 -5 22 -5 22 0 34 2 28 5 -8 3 -13 23 -13 49 0 47 -16 58 -40 29z"/>
<path d="M3620 595 c0 -20 5 -25 26 -25 34 0 29 -31 -6 -41 l-25 -7 26 -1 c48
-2 68 44 24 55 -31 8 -33 31 -2 37 16 3 13 5 -10 6 -29 1 -33 -2 -33 -24z"/>
<path d="M3812 608 c-18 -18 -15 -77 4 -85 29 -11 49 11 49 53 0 31 -4 40 -20
42 -11 1 -26 -3 -33 -10z m42 -22 c7 -30 -2 -56 -19 -56 -15 0 -28 42 -19 64
9 24 31 19 38 -8z"/>
<path d="M3825 570 c-3 -5 -2 -10 4 -10 5 0 13 5 16 10 3 6 2 10 -4 10 -5 0
-13 -4 -16 -10z"/>
<path d="M3902 608 c-18 -18 -15 -77 4 -85 29 -11 49 11 49 53 0 31 -4 40 -20
42 -11 1 -26 -3 -33 -10z m42 -22 c7 -30 -2 -56 -19 -56 -15 0 -28 42 -19 64
9 24 31 19 38 -8z"/>
<path d="M3915 570 c-3 -5 -2 -10 4 -10 5 0 13 5 16 10 3 6 2 10 -4 10 -5 0
-13 -4 -16 -10z"/>
<path d="M3985 611 c-4 -7 2 -10 16 -8 32 3 33 -16 4 -52 l-27 -31 39 1 c24 1
30 3 15 6 -22 4 -23 6 -7 23 23 25 16 64 -12 68 -11 2 -24 -2 -28 -7z"/>
<path d="M4080 605 c-11 -13 -10 -14 4 -9 13 5 16 -1 16 -29 0 -25 -5 -37 -17
-40 -10 -3 0 -5 22 -5 22 0 34 2 28 5 -8 3 -13 23 -13 49 0 47 -16 58 -40 29z"/>
<path d="M4349 586 c12 -18 21 -42 21 -52 1 -11 7 -2 14 19 8 20 19 44 26 52
8 10 9 15 2 15 -6 0 -17 -10 -23 -22 l-12 -22 -15 22 c-24 36 -36 25 -13 -12z"/>
<path d="M4530 605 c-11 -13 -10 -14 4 -9 13 5 16 -1 16 -29 0 -25 -5 -37 -17
-40 -10 -3 0 -5 22 -5 22 0 34 2 28 5 -8 3 -13 23 -13 49 0 47 -16 58 -40 29z"/>
<path d="M4614 605 c-9 -24 3 -45 27 -45 28 0 19 -23 -12 -31 -22 -7 -23 -7
-2 -8 43 -2 71 57 41 87 -17 17 -47 15 -54 -3z m50 -10 c3 -9 -1 -18 -10 -22
-19 -7 -39 11 -30 26 10 16 33 13 40 -4z"/>
<path d="M4704 605 c-9 -24 3 -45 27 -45 28 0 19 -23 -12 -31 -22 -7 -23 -7
-2 -8 43 -2 71 57 41 87 -17 17 -47 15 -54 -3z m50 -10 c3 -9 -1 -18 -10 -22
-19 -7 -39 11 -30 26 10 16 33 13 40 -4z"/>
<path d="M4790 595 c0 -20 5 -25 26 -25 34 0 29 -31 -6 -41 l-25 -7 26 -1 c48
-2 68 44 24 55 -31 8 -33 31 -2 37 16 3 13 5 -10 6 -29 1 -33 -2 -33 -24z"/>
<path d="M4981 580 l-22 -40 25 0 c13 0 26 -6 28 -12 3 -9 9 -8 22 5 10 9 13
17 7 17 -6 0 -11 16 -11 35 0 47 -21 45 -49 -5z m29 -10 c0 -11 -7 -20 -15
-20 -13 0 -14 4 -5 20 6 11 13 20 15 20 3 0 5 -9 5 -20z"/>
<path d="M5065 611 c-4 -7 2 -10 16 -8 32 3 33 -16 4 -52 l-27 -31 39 1 c24 1
30 3 15 6 -22 4 -23 6 -7 23 23 25 16 64 -12 68 -11 2 -24 -2 -28 -7z"/>
<path d="M5150 595 c0 -20 5 -25 26 -25 34 0 29 -31 -6 -41 l-25 -7 26 -1 c48
-2 68 44 24 55 -31 8 -33 31 -2 37 16 3 13 5 -10 6 -29 1 -33 -2 -33 -24z"/>
<path d="M5251 580 l-22 -40 25 0 c13 0 26 -6 28 -12 3 -9 9 -8 22 5 10 9 13
17 7 17 -6 0 -11 16 -11 35 0 47 -21 45 -49 -5z m29 -10 c0 -11 -7 -20 -15
-20 -13 0 -14 4 -5 20 6 11 13 20 15 20 3 0 5 -9 5 -20z"/>
<path d="M5533 613 l27 -4 -26 -45 -26 -44 39 1 c31 2 33 3 10 6 l-28 4 26 45
26 44 -38 -1 c-30 -2 -32 -3 -10 -6z"/>
<path d="M5972 608 c-18 -18 -15 -77 4 -85 29 -11 49 11 49 53 0 31 -4 40 -20
42 -11 1 -26 -3 -33 -10z m42 -22 c7 -30 -2 -56 -19 -56 -15 0 -28 42 -19 64
9 24 31 19 38 -8z"/>
<path d="M5985 570 c-3 -5 -2 -10 4 -10 5 0 13 5 16 10 3 6 2 10 -4 10 -5 0
-13 -4 -16 -10z"/>
<path d="M6152 608 c-18 -18 -15 -77 4 -85 29 -11 49 11 49 53 0 31 -4 40 -20
42 -11 1 -26 -3 -33 -10z m42 -22 c7 -30 -2 -56 -19 -56 -15 0 -28 42 -19 64
9 24 31 19 38 -8z"/>
<path d="M6165 570 c-3 -5 -2 -10 4 -10 5 0 13 5 16 10 3 6 2 10 -4 10 -5 0
-13 -4 -16 -10z"/>
<path d="M6242 608 c-18 -18 -15 -77 4 -85 29 -11 49 11 49 53 0 31 -4 40 -20
42 -11 1 -26 -3 -33 -10z m42 -22 c7 -30 -2 -56 -19 -56 -15 0 -28 42 -19 64
9 24 31 19 38 -8z"/>
<path d="M6255 570 c-3 -5 -2 -10 4 -10 5 0 13 5 16 10 3 6 2 10 -4 10 -5 0
-13 -4 -16 -10z"/>
<path d="M6332 608 c-18 -18 -15 -77 4 -85 29 -11 49 11 49 53 0 31 -4 40 -20
42 -11 1 -26 -3 -33 -10z m42 -22 c7 -30 -2 -56 -19 -56 -15 0 -28 42 -19 64
9 24 31 19 38 -8z"/>
<path d="M6345 570 c-3 -5 -2 -10 4 -10 5 0 13 5 16 10 3 6 2 10 -4 10 -5 0
-13 -4 -16 -10z"/>
<path d="M6422 608 c-18 -18 -15 -77 4 -85 29 -11 49 11 49 53 0 31 -4 40 -20
42 -11 1 -26 -3 -33 -10z m42 -22 c7 -30 -2 -56 -19 -56 -15 0 -28 42 -19 64
9 24 31 19 38 -8z"/>
<path d="M6435 570 c-3 -5 -2 -10 4 -10 5 0 13 5 16 10 3 6 2 10 -4 10 -5 0
-13 -4 -16 -10z"/>
<path d="M2180 556 c0 -42 17 -49 22 -9 4 39 28 42 28 4 0 -17 5 -31 11 -31 6
0 9 14 7 33 -3 28 -7 32 -35 35 -32 3 -33 2 -33 -32z"/>
<path d="M2274 576 c-12 -31 0 -51 31 -51 27 0 30 3 30 30 0 25 -4 30 -28 33
-17 2 -29 -2 -33 -12z m54 -19 c4 -20 -25 -34 -40 -19 -15 15 -1 44 19 40 10
-2 19 -11 21 -21z"/>
<path d="M2450 541 c0 -28 5 -51 10 -51 6 0 10 6 10 14 0 8 12 17 26 20 20 5
25 12 22 34 -2 22 -9 28 -35 30 l-33 3 0 -50z m55 13 c0 -10 -8 -20 -17 -22
-18 -3 -26 27 -11 42 12 11 28 0 28 -20z"/>
<path d="M2544 576 c-12 -31 0 -51 31 -51 27 0 30 3 30 30 0 25 -4 30 -28 33
-17 2 -29 -2 -33 -12z m54 -19 c4 -20 -25 -34 -40 -19 -15 15 -1 44 19 40 10
-2 19 -11 21 -21z"/>
<path d="M2630 556 c0 -42 17 -49 22 -9 4 39 28 42 28 4 0 -17 5 -31 11 -31 6
0 9 14 7 33 -3 28 -7 32 -35 35 -32 3 -33 2 -33 -32z"/>
<path d="M2814 576 c-12 -31 0 -51 31 -51 27 0 30 3 30 30 0 25 -4 30 -28 33
-17 2 -29 -2 -33 -12z m54 -19 c4 -20 -25 -34 -40 -19 -15 15 -1 44 19 40 10
-2 19 -11 21 -21z"/>
<path d="M3188 573 c12 -2 30 -2 40 0 9 3 -1 5 -23 4 -22 0 -30 -2 -17 -4z"/>
<path d="M4448 573 c12 -2 30 -2 40 0 9 3 -1 5 -23 4 -22 0 -30 -2 -17 -4z"/>
<path d="M5618 573 c12 -2 30 -2 40 0 9 3 -1 5 -23 4 -22 0 -30 -2 -17 -4z"/>
<path d="M3188 543 c12 -2 30 -2 40 0 9 3 -1 5 -23 4 -22 0 -30 -2 -17 -4z"/>
<path d="M4448 543 c12 -2 30 -2 40 0 9 3 -1 5 -23 4 -22 0 -30 -2 -17 -4z"/>
<path d="M5618 543 c12 -2 30 -2 40 0 9 3 -1 5 -23 4 -22 0 -30 -2 -17 -4z"/>
<path d="M3730 530 c0 -5 7 -10 15 -10 8 0 15 5 15 10 0 6 -7 10 -15 10 -8 0
-15 -4 -15 -10z"/>
<path d="M4900 530 c0 -5 7 -10 15 -10 8 0 15 5 15 10 0 6 -7 10 -15 10 -8 0
-15 -4 -15 -10z"/>
<path d="M6070 530 c0 -5 7 -10 15 -10 8 0 15 5 15 10 0 6 -7 10 -15 10 -8 0
-15 -4 -15 -10z"/>
<path d="M2741 418 c0 -9 -9 -19 -18 -21 -17 -4 -17 -5 0 -6 12 -1 17 -10 17
-31 0 -26 3 -30 28 -29 23 2 24 2 5 6 -16 3 -23 11 -23 28 0 17 7 25 23 28 22
4 22 4 0 6 -12 0 -24 9 -26 19 -4 15 -5 15 -6 0z"/>
<path d="M3080 425 c0 -3 5 -14 12 -24 9 -15 8 -24 -5 -45 -19 -28 -8 -36 13
-11 12 14 15 14 30 0 26 -23 32 -18 13 11 -14 21 -14 29 -4 46 16 26 5 37 -13
12 -14 -18 -15 -18 -21 -1 -6 15 -25 25 -25 12z"/>
<path d="M3265 421 c-4 -7 2 -10 16 -8 32 3 33 -16 4 -52 l-27 -31 39 1 c24 1
30 3 15 6 -22 4 -23 6 -7 23 23 25 16 64 -12 68 -11 2 -24 -2 -28 -7z"/>
<path d="M3355 421 c-4 -7 2 -10 16 -8 32 3 33 -16 4 -52 l-27 -31 39 1 c24 1
30 3 15 6 -22 4 -23 6 -7 23 23 25 16 64 -12 68 -11 2 -24 -2 -28 -7z"/>
<path d="M3450 415 c-11 -13 -10 -14 4 -9 13 5 16 -1 16 -29 0 -25 -5 -37 -17
-40 -10 -3 0 -5 22 -5 22 0 34 2 28 5 -8 3 -13 23 -13 49 0 47 -16 58 -40 29z"/>
<path d="M3530 405 c0 -20 5 -25 26 -25 34 0 29 -31 -6 -41 l-25 -7 26 -1 c48
-2 68 44 24 55 -31 8 -33 31 -2 37 16 3 13 5 -10 6 -29 1 -33 -2 -33 -24z"/>
<path d="M3636 414 c-32 -31 -15 -88 25 -82 33 4 34 52 2 56 -13 2 -23 8 -23
13 0 5 10 14 23 19 16 6 17 9 5 9 -9 1 -24 -6 -32 -15z m42 -52 c4 -12 -25
-28 -34 -20 -2 3 -6 15 -9 26 -3 18 0 20 18 13 11 -4 23 -13 25 -19z"/>
<path d="M3812 418 c-18 -18 -15 -77 4 -85 29 -11 49 11 49 53 0 31 -4 40 -20
42 -11 1 -26 -3 -33 -10z m42 -22 c7 -30 -2 -56 -19 -56 -15 0 -28 42 -19 64
9 24 31 19 38 -8z"/>
<path d="M3825 380 c-3 -5 -2 -10 4 -10 5 0 13 5 16 10 3 6 2 10 -4 10 -5 0
-13 -4 -16 -10z"/>
<path d="M3895 421 c-4 -7 2 -10 16 -8 32 3 33 -16 4 -52 l-27 -31 39 1 c24 1
30 3 15 6 -22 4 -23 6 -7 23 23 25 16 64 -12 68 -11 2 -24 -2 -28 -7z"/>
<path d="M3992 418 c-18 -18 -15 -77 4 -85 29 -11 49 11 49 53 0 31 -4 40 -20
42 -11 1 -26 -3 -33 -10z m42 -22 c7 -30 -2 -56 -19 -56 -15 0 -28 42 -19 64
9 24 31 19 38 -8z"/>
<path d="M4005 380 c-3 -5 -2 -10 4 -10 5 0 13 5 16 10 3 6 2 10 -4 10 -5 0
-13 -4 -16 -10z"/>
<path d="M4093 423 c32 -5 32 -4 7 -53 -11 -22 -17 -40 -12 -40 7 0 52 82 52
95 0 3 -17 4 -37 4 -31 -2 -33 -3 -10 -6z"/>
<path d="M4349 396 c12 -18 21 -42 21 -52 1 -11 7 -2 14 19 8 20 19 44 26 52
8 10 9 15 2 15 -6 0 -17 -10 -23 -22 l-12 -22 -15 22 c-24 36 -36 25 -13 -12z"/>
<path d="M4530 415 c-11 -13 -10 -14 4 -9 13 5 16 -1 16 -29 0 -25 -5 -37 -17
-40 -10 -3 0 -5 22 -5 22 0 34 2 28 5 -8 3 -13 23 -13 49 0 47 -16 58 -40 29z"/>
<path d="M4614 415 c-9 -24 3 -45 27 -45 28 0 19 -23 -12 -31 -22 -7 -23 -7
-2 -8 43 -2 71 57 41 87 -17 17 -47 15 -54 -3z m50 -10 c3 -9 -1 -18 -10 -22
-19 -7 -39 11 -30 26 10 16 33 13 40 -4z"/>
<path d="M4704 415 c-9 -24 3 -45 27 -45 28 0 19 -23 -12 -31 -22 -7 -23 -7
-2 -8 43 -2 71 57 41 87 -17 17 -47 15 -54 -3z m50 -10 c3 -9 -1 -18 -10 -22
-19 -7 -39 11 -30 26 10 16 33 13 40 -4z"/>
<path d="M4790 405 c0 -20 5 -25 26 -25 34 0 29 -31 -6 -41 l-25 -7 26 -1 c48
-2 68 44 24 55 -31 8 -33 31 -2 37 16 3 13 5 -10 6 -29 1 -33 -2 -33 -24z"/>
<path d="M4981 390 l-22 -40 25 0 c13 0 26 -6 28 -12 3 -9 9 -8 22 5 10 9 13
17 7 17 -6 0 -11 16 -11 35 0 47 -21 45 -49 -5z m29 -10 c0 -11 -7 -20 -15
-20 -13 0 -14 4 -5 20 6 11 13 20 15 20 3 0 5 -9 5 -20z"/>
<path d="M5065 421 c-4 -7 2 -10 16 -8 32 3 33 -16 4 -52 l-27 -31 39 1 c24 1
30 3 15 6 -22 4 -23 6 -7 23 23 25 16 64 -12 68 -11 2 -24 -2 -28 -7z"/>
<path d="M5150 405 c0 -20 5 -25 26 -25 34 0 29 -31 -6 -41 l-25 -7 26 -1 c48
-2 68 44 24 55 -31 8 -33 31 -2 37 16 3 13 5 -10 6 -29 1 -33 -2 -33 -24z"/>
<path d="M5251 390 l-22 -40 25 0 c13 0 26 -6 28 -12 3 -9 9 -8 22 5 10 9 13
17 7 17 -6 0 -11 16 -11 35 0 47 -21 45 -49 -5z m29 -10 c0 -11 -7 -20 -15
-20 -13 0 -14 4 -5 20 6 11 13 20 15 20 3 0 5 -9 5 -20z"/>
<path d="M5533 423 l27 -4 -26 -45 -26 -44 39 1 c31 2 33 3 10 6 l-28 4 26 45
26 44 -38 -1 c-30 -2 -32 -3 -10 -6z"/>
<path d="M5972 418 c-18 -18 -15 -77 4 -85 29 -11 49 11 49 53 0 31 -4 40 -20
42 -11 1 -26 -3 -33 -10z m42 -22 c7 -30 -2 -56 -19 -56 -15 0 -28 42 -19 64
9 24 31 19 38 -8z"/>
<path d="M5985 380 c-3 -5 -2 -10 4 -10 5 0 13 5 16 10 3 6 2 10 -4 10 -5 0
-13 -4 -16 -10z"/>
<path d="M6152 418 c-18 -18 -15 -77 4 -85 29 -11 49 11 49 53 0 31 -4 40 -20
42 -11 1 -26 -3 -33 -10z m42 -22 c7 -30 -2 -56 -19 -56 -15 0 -28 42 -19 64
9 24 31 19 38 -8z"/>
<path d="M6165 380 c-3 -5 -2 -10 4 -10 5 0 13 5 16 10 3 6 2 10 -4 10 -5 0
-13 -4 -16 -10z"/>
<path d="M6242 418 c-18 -18 -15 -77 4 -85 29 -11 49 11 49 53 0 31 -4 40 -20
42 -11 1 -26 -3 -33 -10z m42 -22 c7 -30 -2 -56 -19 -56 -15 0 -28 42 -19 64
9 24 31 19 38 -8z"/>
<path d="M6255 380 c-3 -5 -2 -10 4 -10 5 0 13 5 16 10 3 6 2 10 -4 10 -5 0
-13 -4 -16 -10z"/>
<path d="M6332 418 c-18 -18 -15 -77 4 -85 29 -11 49 11 49 53 0 31 -4 40 -20
42 -11 1 -26 -3 -33 -10z m42 -22 c7 -30 -2 -56 -19 -56 -15 0 -28 42 -19 64
9 24 31 19 38 -8z"/>
<path d="M6345 380 c-3 -5 -2 -10 4 -10 5 0 13 5 16 10 3 6 2 10 -4 10 -5 0
-13 -4 -16 -10z"/>
<path d="M6422 418 c-18 -18 -15 -77 4 -85 29 -11 49 11 49 53 0 31 -4 40 -20
42 -11 1 -26 -3 -33 -10z m42 -22 c7 -30 -2 -56 -19 -56 -15 0 -28 42 -19 64
9 24 31 19 38 -8z"/>
<path d="M6435 380 c-3 -5 -2 -10 4 -10 5 0 13 5 16 10 3 6 2 10 -4 10 -5 0
-13 -4 -16 -10z"/>
<path d="M2180 366 c0 -42 17 -49 22 -9 4 39 28 42 28 4 0 -17 5 -31 11 -31 6
0 9 14 7 33 -3 28 -7 32 -35 35 -32 3 -33 2 -33 -32z"/>
<path d="M2274 386 c-12 -31 0 -51 31 -51 27 0 30 3 30 30 0 25 -4 30 -28 33
-17 2 -29 -2 -33 -12z m54 -19 c4 -20 -25 -34 -40 -19 -15 15 -1 44 19 40 10
-2 19 -11 21 -21z"/>
<path d="M2450 351 c0 -28 5 -51 10 -51 6 0 10 6 10 14 0 8 12 17 26 20 20 5
25 12 22 34 -2 22 -9 28 -35 30 l-33 3 0 -50z m55 13 c0 -10 -8 -20 -17 -22
-18 -3 -26 27 -11 42 12 11 28 0 28 -20z"/>
<path d="M2544 386 c-12 -31 0 -51 31 -51 27 0 30 3 30 30 0 25 -4 30 -28 33
-17 2 -29 -2 -33 -12z m54 -19 c4 -20 -25 -34 -40 -19 -15 15 -1 44 19 40 10
-2 19 -11 21 -21z"/>
<path d="M2630 366 c0 -42 17 -49 22 -9 4 39 28 42 28 4 0 -17 5 -31 11 -31 6
0 9 14 7 33 -3 28 -7 32 -35 35 -32 3 -33 2 -33 -32z"/>
<path d="M2814 386 c-12 -31 0 -51 31 -51 27 0 30 3 30 30 0 25 -4 30 -28 33
-17 2 -29 -2 -33 -12z m54 -19 c4 -20 -25 -34 -40 -19 -15 15 -1 44 19 40 10
-2 19 -11 21 -21z"/>
<path d="M3188 383 c12 -2 30 -2 40 0 9 3 -1 5 -23 4 -22 0 -30 -2 -17 -4z"/>
<path d="M4448 383 c12 -2 30 -2 40 0 9 3 -1 5 -23 4 -22 0 -30 -2 -17 -4z"/>
<path d="M5618 383 c12 -2 30 -2 40 0 9 3 -1 5 -23 4 -22 0 -30 -2 -17 -4z"/>
<path d="M3188 353 c12 -2 30 -2 40 0 9 3 -1 5 -23 4 -22 0 -30 -2 -17 -4z"/>
<path d="M4448 353 c12 -2 30 -2 40 0 9 3 -1 5 -23 4 -22 0 -30 -2 -17 -4z"/>
<path d="M5618 353 c12 -2 30 -2 40 0 9 3 -1 5 -23 4 -22 0 -30 -2 -17 -4z"/>
<path d="M3730 340 c0 -5 7 -10 15 -10 8 0 15 5 15 10 0 6 -7 10 -15 10 -8 0
-15 -4 -15 -10z"/>
<path d="M4900 340 c0 -5 7 -10 15 -10 8 0 15 5 15 10 0 6 -7 10 -15 10 -8 0
-15 -4 -15 -10z"/>
<path d="M6070 340 c0 -5 7 -10 15 -10 8 0 15 5 15 10 0 6 -7 10 -15 10 -8 0
-15 -4 -15 -10z"/>
<path d="M2741 228 c0 -9 -9 -19 -18 -21 -17 -4 -17 -5 0 -6 12 -1 17 -10 17
-31 0 -26 3 -30 28 -29 23 2 24 2 5 6 -16 3 -23 11 -23 28 0 17 7 25 23 28 22
4 22 4 0 6 -12 0 -24 9 -26 19 -4 15 -5 15 -6 0z"/>
<path d="M3080 235 c0 -3 5 -14 12 -24 9 -15 8 -24 -5 -45 -19 -28 -8 -36 13
-11 12 14 15 14 30 0 26 -23 32 -18 13 11 -14 21 -14 29 -4 46 16 26 5 37 -13
12 -14 -18 -15 -18 -21 -1 -6 15 -25 25 -25 12z"/>
<path d="M3265 231 c-4 -7 2 -10 16 -8 32 3 33 -16 4 -52 l-27 -31 39 1 c24 1
30 3 15 6 -22 4 -23 6 -7 23 23 25 16 64 -12 68 -11 2 -24 -2 -28 -7z"/>
<path d="M3355 231 c-4 -7 2 -10 16 -8 32 3 33 -16 4 -52 l-27 -31 39 1 c24 1
30 3 15 6 -22 4 -23 6 -7 23 23 25 16 64 -12 68 -11 2 -24 -2 -28 -7z"/>
<path d="M3450 225 c-11 -13 -10 -14 4 -9 13 5 16 -1 16 -29 0 -25 -5 -37 -17
-40 -10 -3 0 -5 22 -5 22 0 34 2 28 5 -8 3 -13 23 -13 49 0 47 -16 58 -40 29z"/>
<path d="M3530 215 c0 -20 5 -25 26 -25 34 0 29 -31 -6 -41 l-25 -7 26 -1 c48
-2 68 44 24 55 -31 8 -33 31 -2 37 16 3 13 5 -10 6 -29 1 -33 -2 -33 -24z"/>
<path d="M3636 224 c-32 -31 -15 -88 25 -82 33 4 34 52 2 56 -13 2 -23 8 -23
13 0 5 10 14 23 19 16 6 17 9 5 9 -9 1 -24 -6 -32 -15z m42 -52 c4 -12 -25
-28 -34 -20 -2 3 -6 15 -9 26 -3 18 0 20 18 13 11 -4 23 -13 25 -19z"/>
<path d="M3812 228 c-18 -18 -15 -77 4 -85 29 -11 49 11 49 53 0 31 -4 40 -20
42 -11 1 -26 -3 -33 -10z m42 -22 c7 -30 -2 -56 -19 -56 -15 0 -28 42 -19 64
9 24 31 19 38 -8z"/>
<path d="M3825 190 c-3 -5 -2 -10 4 -10 5 0 13 5 16 10 3 6 2 10 -4 10 -5 0
-13 -4 -16 -10z"/>
<path d="M3895 231 c-4 -7 2 -10 16 -8 32 3 33 -16 4 -52 l-27 -31 39 1 c24 1
30 3 15 6 -22 4 -23 6 -7 23 23 25 16 64 -12 68 -11 2 -24 -2 -28 -7z"/>
<path d="M3992 228 c-18 -18 -15 -77 4 -85 29 -11 49 11 49 53 0 31 -4 40 -20
42 -11 1 -26 -3 -33 -10z m42 -22 c7 -30 -2 -56 -19 -56 -15 0 -28 42 -19 64
9 24 31 19 38 -8z"/>
<path d="M4005 190 c-3 -5 -2 -10 4 -10 5 0 13 5 16 10 3 6 2 10 -4 10 -5 0
-13 -4 -16 -10z"/>
<path d="M4093 233 c32 -5 32 -4 7 -53 -11 -22 -17 -40 -12 -40 7 0 52 82 52
95 0 3 -17 4 -37 4 -31 -2 -33 -3 -10 -6z"/>
<path d="M4349 206 c12 -18 21 -42 21 -52 1 -11 7 -2 14 19 8 20 19 44 26 52
8 10 9 15 2 15 -6 0 -17 -10 -23 -22 l-12 -22 -15 22 c-24 36 -36 25 -13 -12z"/>
<path d="M4531 200 l-22 -40 25 0 c13 0 26 -6 28 -12 3 -9 9 -8 22 5 10 9 13
17 7 17 -6 0 -11 16 -11 35 0 47 -21 45 -49 -5z m29 -10 c0 -11 -7 -20 -15
-20 -13 0 -14 4 -5 20 6 11 13 20 15 20 3 0 5 -9 5 -20z"/>
<path d="M4620 225 c-11 -13 -10 -14 4 -9 13 5 16 -1 16 -29 0 -25 -5 -37 -17
-40 -10 -3 0 -5 22 -5 22 0 34 2 28 5 -8 3 -13 23 -13 49 0 47 -16 58 -40 29z"/>
<path d="M4704 225 c-9 -24 3 -45 27 -45 28 0 19 -23 -12 -31 -22 -7 -23 -7
-2 -8 43 -2 71 57 41 87 -17 17 -47 15 -54 -3z m50 -10 c3 -9 -1 -18 -10 -22
-19 -7 -39 11 -30 26 10 16 33 13 40 -4z"/>
<path d="M4802 228 c-18 -18 -15 -77 4 -85 29 -11 49 11 49 53 0 31 -4 40 -20
42 -11 1 -26 -3 -33 -10z m42 -22 c7 -30 -2 -56 -19 -56 -15 0 -28 42 -19 64
9 24 31 19 38 -8z"/>
<path d="M4815 190 c-3 -5 -2 -10 4 -10 5 0 13 5 16 10 3 6 2 10 -4 10 -5 0
-13 -4 -16 -10z"/>
<path d="M4975 230 c-4 -6 -2 -17 4 -24 7 -9 7 -16 -1 -24 -17 -17 -1 -42 27
-42 29 0 43 23 26 43 -7 10 -7 17 0 24 6 6 8 16 5 22 -9 14 -53 14 -61 1z m45
-16 c0 -9 -5 -14 -12 -12 -18 6 -21 28 -4 28 9 0 16 -7 16 -16z m4 -55 c-8
-14 -34 -11 -34 4 0 8 3 17 7 20 9 9 34 -13 27 -24z"/>
<path d="M5065 230 c-4 -6 -2 -17 4 -24 7 -9 7 -16 -1 -24 -17 -17 -1 -42 27
-42 29 0 43 23 26 43 -7 10 -7 17 0 24 6 6 8 16 5 22 -9 14 -53 14 -61 1z m45
-16 c0 -9 -5 -14 -12 -12 -18 6 -21 28 -4 28 9 0 16 -7 16 -16z m4 -55 c-8
-14 -34 -11 -34 4 0 8 3 17 7 20 9 9 34 -13 27 -24z"/>
<path d="M5178 233 c12 -2 22 -9 22 -14 0 -5 -10 -14 -22 -19 l-23 -9 23 0
c34 -1 30 -38 -5 -44 l-28 -5 29 2 c31 1 59 31 41 44 -5 4 -10 16 -10 27 0 14
-7 20 -25 21 -22 1 -22 0 -2 -3z"/>
<path d="M5250 225 c-11 -13 -10 -14 4 -9 13 5 16 -1 16 -29 0 -25 -5 -37 -17
-40 -10 -3 0 -5 22 -5 22 0 34 2 28 5 -8 3 -13 23 -13 49 0 47 -16 58 -40 29z"/>
<path d="M5533 233 l27 -4 -26 -45 -26 -44 39 1 c31 2 33 3 10 6 l-28 4 26 45
26 44 -38 -1 c-30 -2 -32 -3 -10 -6z"/>
<path d="M5972 228 c-18 -18 -15 -77 4 -85 29 -11 49 11 49 53 0 31 -4 40 -20
42 -11 1 -26 -3 -33 -10z m42 -22 c7 -30 -2 -56 -19 -56 -15 0 -28 42 -19 64
9 24 31 19 38 -8z"/>
<path d="M5985 190 c-3 -5 -2 -10 4 -10 5 0 13 5 16 10 3 6 2 10 -4 10 -5 0
-13 -4 -16 -10z"/>
<path d="M6152 228 c-18 -18 -15 -77 4 -85 29 -11 49 11 49 53 0 31 -4 40 -20
42 -11 1 -26 -3 -33 -10z m42 -22 c7 -30 -2 -56 -19 -56 -15 0 -28 42 -19 64
9 24 31 19 38 -8z"/>
<path d="M6165 190 c-3 -5 -2 -10 4 -10 5 0 13 5 16 10 3 6 2 10 -4 10 -5 0
-13 -4 -16 -10z"/>
<path d="M6242 228 c-18 -18 -15 -77 4 -85 29 -11 49 11 49 53 0 31 -4 40 -20
42 -11 1 -26 -3 -33 -10z m42 -22 c7 -30 -2 -56 -19 -56 -15 0 -28 42 -19 64
9 24 31 19 38 -8z"/>
<path d="M6255 190 c-3 -5 -2 -10 4 -10 5 0 13 5 16 10 3 6 2 10 -4 10 -5 0
-13 -4 -16 -10z"/>
<path d="M6332 228 c-18 -18 -15 -77 4 -85 29 -11 49 11 49 53 0 31 -4 40 -20
42 -11 1 -26 -3 -33 -10z m42 -22 c7 -30 -2 -56 -19 -56 -15 0 -28 42 -19 64
9 24 31 19 38 -8z"/>
<path d="M6345 190 c-3 -5 -2 -10 4 -10 5 0 13 5 16 10 3 6 2 10 -4 10 -5 0
-13 -4 -16 -10z"/>
<path d="M6422 228 c-18 -18 -15 -77 4 -85 29 -11 49 11 49 53 0 31 -4 40 -20
42 -11 1 -26 -3 -33 -10z m42 -22 c7 -30 -2 -56 -19 -56 -15 0 -28 42 -19 64
9 24 31 19 38 -8z"/>
<path d="M6435 190 c-3 -5 -2 -10 4 -10 5 0 13 5 16 10 3 6 2 10 -4 10 -5 0
-13 -4 -16 -10z"/>
<path d="M2180 176 c0 -42 17 -49 22 -9 4 39 28 42 28 4 0 -17 5 -31 11 -31 6
0 9 14 7 33 -3 28 -7 32 -35 35 -32 3 -33 2 -33 -32z"/>
<path d="M2274 196 c-12 -31 0 -51 31 -51 27 0 30 3 30 30 0 25 -4 30 -28 33
-17 2 -29 -2 -33 -12z m54 -19 c4 -20 -25 -34 -40 -19 -15 15 -1 44 19 40 10
-2 19 -11 21 -21z"/>
<path d="M2450 161 c0 -28 5 -51 10 -51 6 0 10 6 10 14 0 8 12 17 26 20 20 5
25 12 22 34 -2 22 -9 28 -35 30 l-33 3 0 -50z m55 13 c0 -10 -8 -20 -17 -22
-18 -3 -26 27 -11 42 12 11 28 0 28 -20z"/>
<path d="M2544 196 c-12 -31 0 -51 31 -51 27 0 30 3 30 30 0 25 -4 30 -28 33
-17 2 -29 -2 -33 -12z m54 -19 c4 -20 -25 -34 -40 -19 -15 15 -1 44 19 40 10
-2 19 -11 21 -21z"/>
<path d="M2630 176 c0 -42 17 -49 22 -9 4 39 28 42 28 4 0 -17 5 -31 11 -31 6
0 9 14 7 33 -3 28 -7 32 -35 35 -32 3 -33 2 -33 -32z"/>
<path d="M2814 196 c-12 -31 0 -51 31 -51 27 0 30 3 30 30 0 25 -4 30 -28 33
-17 2 -29 -2 -33 -12z m54 -19 c4 -20 -25 -34 -40 -19 -15 15 -1 44 19 40 10
-2 19 -11 21 -21z"/>
<path d="M3188 193 c12 -2 30 -2 40 0 9 3 -1 5 -23 4 -22 0 -30 -2 -17 -4z"/>
<path d="M4448 193 c12 -2 30 -2 40 0 9 3 -1 5 -23 4 -22 0 -30 -2 -17 -4z"/>
<path d="M5618 193 c12 -2 30 -2 40 0 9 3 -1 5 -23 4 -22 0 -30 -2 -17 -4z"/>
<path d="M3188 163 c12 -2 30 -2 40 0 9 3 -1 5 -23 4 -22 0 -30 -2 -17 -4z"/>
<path d="M4448 163 c12 -2 30 -2 40 0 9 3 -1 5 -23 4 -22 0 -30 -2 -17 -4z"/>
<path d="M5618 163 c12 -2 30 -2 40 0 9 3 -1 5 -23 4 -22 0 -30 -2 -17 -4z"/>
<path d="M3730 150 c0 -5 7 -10 15 -10 8 0 15 5 15 10 0 6 -7 10 -15 10 -8 0
-15 -4 -15 -10z"/>
<path d="M4900 150 c0 -5 7 -10 15 -10 8 0 15 5 15 10 0 6 -7 10 -15 10 -8 0
-15 -4 -15 -10z"/>
<path d="M6070 150 c0 -5 7 -10 15 -10 8 0 15 5 15 10 0 6 -7 10 -15 10 -8 0
-15 -4 -15 -10z"/>
<path d="M2741 38 c0 -9 -9 -18 -18 -20 -16 -3 -15 -4 2 -9 11 -3 31 -2 45 2
23 6 23 7 3 8 -12 1 -24 9 -26 19 -4 15 -5 15 -6 0z"/>
<path d="M3080 43 c1 -13 26 -43 36 -43 12 0 37 40 30 48 -4 3 -13 -3 -20 -14
-14 -18 -15 -18 -21 -1 -7 17 -25 24 -25 10z"/>
<path d="M3270 35 c-11 -13 -10 -14 4 -9 11 4 16 1 16 -10 0 -9 5 -16 10 -16
6 0 10 11 10 25 0 28 -21 33 -40 10z"/>
<path d="M3373 43 c23 -4 27 -8 22 -26 -6 -21 -6 -22 9 -3 24 30 20 36 -21 35
-31 -2 -33 -3 -10 -6z"/>
<path d="M3445 40 c-4 -7 0 -19 9 -28 13 -13 20 -14 34 -6 9 6 17 17 17 25 0
17 -50 24 -60 9z m45 -16 c0 -9 -5 -14 -12 -12 -18 6 -21 28 -4 28 9 0 16 -7
16 -16z"/>
<path d="M3540 35 c-11 -13 -10 -14 4 -9 11 4 16 1 16 -10 0 -9 5 -16 10 -16
6 0 10 11 10 25 0 28 -21 33 -40 10z"/>
<path d="M3620 25 c0 -21 5 -25 28 -24 16 1 20 3 10 6 -26 6 -22 31 5 36 16 3
13 5 -10 6 -29 1 -33 -2 -33 -24z"/>
<path d="M3812 38 c-6 -6 -12 -19 -11 -27 0 -11 4 -8 11 7 6 12 17 22 25 22
17 0 17 -27 1 -33 -7 -3 -3 -4 10 -4 17 1 22 7 20 22 -3 23 -37 32 -56 13z"/>
<path d="M3902 38 c-6 -6 -12 -19 -11 -27 0 -11 4 -8 11 7 6 12 17 22 25 22
17 0 17 -27 1 -33 -7 -3 -3 -4 10 -4 17 1 22 7 20 22 -3 23 -37 32 -56 13z"/>
<path d="M3985 41 c-4 -7 3 -10 17 -8 17 1 23 -3 22 -16 -1 -9 3 -17 8 -17 5
0 8 10 6 23 -3 24 -41 36 -53 18z"/>
<path d="M4080 35 c-11 -13 -10 -14 4 -9 11 4 16 1 16 -10 0 -9 5 -16 10 -16
6 0 10 11 10 25 0 28 -21 33 -40 10z"/>
<path d="M4340 29 c18 -32 40 -35 61 -8 10 13 15 26 13 29 -3 2 -14 -6 -23
-19 l-19 -24 -11 21 c-6 12 -16 22 -22 22 -6 0 -6 -8 1 -21z"/>
<path d="M4542 30 c-16 -27 -15 -35 3 -20 10 9 15 9 15 1 0 -6 5 -11 10 -11 6
0 10 11 10 25 0 30 -20 33 -38 5z"/>
<path d="M4620 35 c-11 -13 -10 -14 4 -9 11 4 16 1 16 -10 0 -9 5 -16 10 -16
6 0 10 11 10 25 0 28 -21 33 -40 10z"/>
<path d="M4707 43 c-11 -10 -8 -43 3 -43 5 0 7 7 4 15 -8 19 25 33 36 14 5 -7
6 -17 4 -21 -3 -4 0 -8 5 -8 15 0 14 23 -1 38 -13 13 -41 16 -51 5z"/>
<path d="M4802 38 c-6 -6 -12 -19 -11 -27 0 -11 4 -8 11 7 6 12 17 22 25 22
17 0 17 -27 1 -33 -7 -3 -3 -4 10 -4 17 1 22 7 20 22 -3 23 -37 32 -56 13z"/>
<path d="M4975 40 c-4 -7 0 -19 9 -28 13 -13 20 -14 34 -6 9 6 17 17 17 25 0
17 -50 24 -60 9z m45 -16 c0 -17 -22 -14 -28 4 -2 7 3 12 12 12 9 0 16 -7 16
-16z"/>
<path d="M5065 40 c-4 -7 0 -19 9 -28 13 -13 20 -14 34 -6 9 6 17 17 17 25 0
17 -50 24 -60 9z m45 -16 c0 -17 -22 -14 -28 4 -2 7 3 12 12 12 9 0 16 -7 16
-16z"/>
<path d="M5178 43 c12 -2 22 -9 22 -14 0 -5 -10 -14 -22 -19 -23 -10 -23 -10
2 -7 18 1 25 8 25 22 0 14 -7 20 -25 21 -22 1 -22 0 -2 -3z"/>
<path d="M5250 35 c-11 -13 -10 -14 4 -9 11 4 16 1 16 -10 0 -9 5 -16 10 -16
6 0 10 11 10 25 0 28 -21 33 -40 10z"/>
<path d="M5532 43 c25 -4 27 -7 17 -25 -8 -15 -8 -19 0 -14 6 4 16 16 21 27
10 17 7 19 -27 18 -30 -2 -32 -3 -11 -6z"/>
<path d="M5972 38 c-6 -6 -12 -19 -11 -27 0 -11 4 -8 11 7 6 12 17 22 25 22
17 0 17 -27 1 -33 -7 -3 -3 -4 10 -4 17 1 22 7 20 22 -3 23 -37 32 -56 13z"/>
<path d="M6152 38 c-6 -6 -12 -19 -11 -27 0 -11 4 -8 11 7 6 12 17 22 25 22
17 0 17 -27 1 -33 -7 -3 -3 -4 10 -4 17 1 22 7 20 22 -3 23 -37 32 -56 13z"/>
<path d="M6242 38 c-6 -6 -12 -19 -11 -27 0 -11 4 -8 11 7 6 12 17 22 25 22
17 0 17 -27 1 -33 -7 -3 -3 -4 10 -4 17 1 22 7 20 22 -3 23 -37 32 -56 13z"/>
<path d="M6332 38 c-6 -6 -12 -19 -11 -27 0 -11 4 -8 11 7 6 12 17 22 25 22
17 0 17 -27 1 -33 -7 -3 -3 -4 10 -4 17 1 22 7 20 22 -3 23 -37 32 -56 13z"/>
<path d="M6422 38 c-6 -6 -12 -19 -11 -27 0 -11 4 -8 11 7 6 12 17 22 25 22
17 0 17 -27 1 -33 -7 -3 -3 -4 10 -4 17 1 22 7 20 22 -3 23 -37 32 -56 13z"/>
<path d="M2180 11 c0 -5 15 -9 34 -8 19 0 33 5 30 9 -7 11 -64 10 -64 -1z"/>
<path d="M2276 12 c-2 -4 10 -8 29 -8 19 0 31 4 29 8 -7 10 -51 10 -58 0z"/>
<path d="M2450 11 c0 -5 15 -9 34 -8 19 0 33 5 30 9 -7 11 -64 10 -64 -1z"/>
<path d="M2546 12 c-2 -4 10 -8 29 -8 19 0 31 4 29 8 -7 10 -51 10 -58 0z"/>
<path d="M2630 11 c0 -5 15 -9 34 -8 19 0 33 5 30 9 -7 11 -64 10 -64 -1z"/>
<path d="M2816 12 c-2 -4 10 -8 29 -8 19 0 31 4 29 8 -7 10 -51 10 -58 0z"/>
<path d="M3188 3 c12 -2 30 -2 40 0 9 3 -1 5 -23 4 -22 0 -30 -2 -17 -4z"/>
<path d="M4448 3 c12 -2 30 -2 40 0 9 3 -1 5 -23 4 -22 0 -30 -2 -17 -4z"/>
<path d="M5618 3 c12 -2 30 -2 40 0 9 3 -1 5 -23 4 -22 0 -30 -2 -17 -4z"/>
</g>
</svg>
